<svg width="251" height="190" viewBox="0 0 251 190" fill="none" xmlns="http://www.w3.org/2000/svg">
<path d="M205.055 136.249C205.523 132.797 205.773 129.32 205.805 125.837C205.775 122.355 205.526 118.877 205.06 115.426L227.639 97.7539C228.638 96.9589 229.317 95.8308 229.552 94.5759C229.787 93.3211 229.563 92.0235 228.92 90.9206L207.566 53.9258C206.936 52.8264 205.932 51.99 204.737 51.5693C203.541 51.1486 202.235 51.1716 201.055 51.6341L174.467 62.3633C168.93 58.0948 162.866 54.5586 156.425 51.8425L152.42 23.5508C152.187 22.3007 151.527 21.1702 150.554 20.3523C149.58 19.5344 148.353 19.0799 147.081 19.0664L104.373 19.0664C103.105 19.0729 101.88 19.526 100.913 20.3461C99.9464 21.1663 99.2996 22.301 99.0864 23.5508L95.0864 51.8477C88.6328 54.5404 82.5644 58.0764 77.0396 62.3633L50.4562 51.6341C49.2747 51.1822 47.9712 51.1646 46.7779 51.5843C45.5846 52.004 44.5791 52.8338 43.9406 53.9258L22.5864 90.9258C21.954 92.0315 21.7356 93.3261 21.9703 94.5781C22.205 95.8301 22.8776 96.9577 23.8677 97.7591L46.3989 115.431C45.9318 118.881 45.6813 122.356 45.6489 125.837C45.6811 129.32 45.9316 132.797 46.3989 136.249L23.8677 153.921C22.8687 154.716 22.1893 155.844 21.954 157.099C21.7188 158.353 21.9433 159.651 22.5864 160.754L43.9406 197.749C44.5704 198.848 45.5745 199.684 46.7697 200.105C47.9648 200.526 49.2714 200.503 50.451 200.04L77.0396 189.311C82.5758 193.58 88.6398 197.116 95.0812 199.832L99.0864 228.124C99.2996 229.374 99.9464 230.508 100.913 231.328C101.88 232.148 103.105 232.602 104.373 232.608H147.081C148.349 232.602 149.574 232.148 150.541 231.328C151.508 230.508 152.155 229.374 152.368 228.124L156.368 199.832C162.822 197.138 168.89 193.6 174.415 189.311L200.998 200.04C202.179 200.491 203.481 200.508 204.673 200.088C205.865 199.668 206.87 198.84 207.508 197.749L228.862 160.749C229.495 159.643 229.713 158.348 229.479 157.096C229.244 155.844 228.571 154.717 227.581 153.915L205.055 136.249Z" stroke="url(#paint0_linear_2142_458)" stroke-width="1.5" stroke-linecap="round" stroke-linejoin="round"/>
<path d="M205.055 136.249C205.523 132.797 205.773 129.32 205.805 125.837C205.775 122.355 205.526 118.877 205.06 115.426L227.639 97.7539C228.638 96.9589 229.317 95.8308 229.552 94.5759C229.787 93.3211 229.563 92.0235 228.92 90.9206L207.566 53.9258C206.936 52.8264 205.932 51.99 204.737 51.5693C203.541 51.1486 202.235 51.1716 201.055 51.6341L174.467 62.3633C168.93 58.0948 162.866 54.5586 156.425 51.8425L152.42 23.5508C152.187 22.3007 151.527 21.1702 150.554 20.3523C149.58 19.5344 148.353 19.0799 147.081 19.0664L104.373 19.0664C103.105 19.0729 101.88 19.526 100.913 20.3461C99.9464 21.1663 99.2996 22.301 99.0864 23.5508L95.0864 51.8477C88.6328 54.5404 82.5644 58.0764 77.0396 62.3633L50.4562 51.6341C49.2747 51.1822 47.9712 51.1646 46.7779 51.5843C45.5846 52.004 44.5791 52.8338 43.9406 53.9258L22.5864 90.9258C21.954 92.0315 21.7356 93.3261 21.9703 94.5781C22.205 95.8301 22.8776 96.9577 23.8677 97.7591L46.3989 115.431C45.9318 118.881 45.6813 122.356 45.6489 125.837C45.6811 129.32 45.9316 132.797 46.3989 136.249L23.8677 153.921C22.8687 154.716 22.1893 155.844 21.954 157.099C21.7188 158.353 21.9433 159.651 22.5864 160.754L43.9406 197.749C44.5704 198.848 45.5745 199.684 46.7697 200.105C47.9648 200.526 49.2714 200.503 50.451 200.04L77.0396 189.311C82.5758 193.58 88.6398 197.116 95.0812 199.832L99.0864 228.124C99.2996 229.374 99.9464 230.508 100.913 231.328C101.88 232.148 103.105 232.602 104.373 232.608H147.081C148.349 232.602 149.574 232.148 150.541 231.328C151.508 230.508 152.155 229.374 152.368 228.124L156.368 199.832C162.822 197.138 168.89 193.6 174.415 189.311L200.998 200.04C202.179 200.491 203.481 200.508 204.673 200.088C205.865 199.668 206.87 198.84 207.508 197.749L228.862 160.749C229.495 159.643 229.713 158.348 229.479 157.096C229.244 155.844 228.571 154.717 227.581 153.915L205.055 136.249Z" stroke="url(#paint1_linear_2142_458)" stroke-width="1.5" stroke-linecap="round" stroke-linejoin="round"/>
<path d="M205.055 136.249C205.523 132.797 205.773 129.32 205.805 125.837C205.775 122.355 205.526 118.877 205.06 115.426L227.639 97.7539C228.638 96.9589 229.317 95.8308 229.552 94.5759C229.787 93.3211 229.563 92.0235 228.92 90.9206L207.566 53.9258C206.936 52.8264 205.932 51.99 204.737 51.5693C203.541 51.1486 202.235 51.1716 201.055 51.6341L174.467 62.3633C168.93 58.0948 162.866 54.5586 156.425 51.8425L152.42 23.5508C152.187 22.3007 151.527 21.1702 150.554 20.3523C149.58 19.5344 148.353 19.0799 147.081 19.0664L104.373 19.0664C103.105 19.0729 101.88 19.526 100.913 20.3461C99.9464 21.1663 99.2996 22.301 99.0864 23.5508L95.0864 51.8477C88.6328 54.5404 82.5644 58.0764 77.0396 62.3633L50.4562 51.6341C49.2747 51.1822 47.9712 51.1646 46.7779 51.5843C45.5846 52.004 44.5791 52.8338 43.9406 53.9258L22.5864 90.9258C21.954 92.0315 21.7356 93.3261 21.9703 94.5781C22.205 95.8301 22.8776 96.9577 23.8677 97.7591L46.3989 115.431C45.9318 118.881 45.6813 122.356 45.6489 125.837C45.6811 129.32 45.9316 132.797 46.3989 136.249L23.8677 153.921C22.8687 154.716 22.1893 155.844 21.954 157.099C21.7188 158.353 21.9433 159.651 22.5864 160.754L43.9406 197.749C44.5704 198.848 45.5745 199.684 46.7697 200.105C47.9648 200.526 49.2714 200.503 50.451 200.04L77.0396 189.311C82.5758 193.58 88.6398 197.116 95.0812 199.832L99.0864 228.124C99.2996 229.374 99.9464 230.508 100.913 231.328C101.88 232.148 103.105 232.602 104.373 232.608H147.081C148.349 232.602 149.574 232.148 150.541 231.328C151.508 230.508 152.155 229.374 152.368 228.124L156.368 199.832C162.822 197.138 168.89 193.6 174.415 189.311L200.998 200.04C202.179 200.491 203.481 200.508 204.673 200.088C205.865 199.668 206.87 198.84 207.508 197.749L228.862 160.749C229.495 159.643 229.713 158.348 229.479 157.096C229.244 155.844 228.571 154.717 227.581 153.915L205.055 136.249Z" stroke="#B33C3C" stroke-width="1.5" stroke-linecap="round" stroke-linejoin="round"/>
<path d="M125.753 155.133C141.933 155.133 155.05 142.016 155.05 125.836C155.05 109.656 141.933 96.5391 125.753 96.5391C109.573 96.5391 96.4563 109.656 96.4563 125.836C96.4563 142.016 109.573 155.133 125.753 155.133Z" stroke="url(#paint2_linear_2142_458)" stroke-width="1.5" stroke-linecap="round" stroke-linejoin="round"/>
<path d="M125.753 155.133C141.933 155.133 155.05 142.016 155.05 125.836C155.05 109.656 141.933 96.5391 125.753 96.5391C109.573 96.5391 96.4563 109.656 96.4563 125.836C96.4563 142.016 109.573 155.133 125.753 155.133Z" stroke="url(#paint3_linear_2142_458)" stroke-width="1.5" stroke-linecap="round" stroke-linejoin="round"/>
<path d="M125.753 155.133C141.933 155.133 155.05 142.016 155.05 125.836C155.05 109.656 141.933 96.5391 125.753 96.5391C109.573 96.5391 96.4563 109.656 96.4563 125.836C96.4563 142.016 109.573 155.133 125.753 155.133Z" stroke="#B33C3C" stroke-width="1.5" stroke-linecap="round" stroke-linejoin="round"/>
<path d="M125.753 96.5391C114.958 96.6849 104.355 99.4223 94.8379 104.521C85.3209 109.619 77.168 116.929 71.0657 125.836C77.168 134.743 85.3209 142.053 94.8379 147.151C104.355 152.25 114.958 154.987 125.753 155.133C136.549 154.987 147.151 152.25 156.668 147.151C166.185 142.053 174.338 134.743 180.441 125.836C174.338 116.929 166.185 109.619 156.668 104.521C147.151 99.4223 136.549 96.6849 125.753 96.5391Z" stroke="#B33C3C" stroke-width="1.5" stroke-linecap="round" stroke-linejoin="round"/>
<path d="M125.753 122.68C127.496 122.68 128.909 124.093 128.909 125.836C128.909 127.579 127.496 128.992 125.753 128.992C124.01 128.992 122.597 127.579 122.597 125.836C122.597 124.093 124.01 122.68 125.753 122.68Z" stroke="#B33C3C" stroke-width="1.5"/>
<defs>
<linearGradient id="paint0_linear_2142_458" x1="125.753" y1="19.0664" x2="125.753" y2="232.608" gradientUnits="userSpaceOnUse">
<stop stop-color="#464646"/>
<stop offset="1" stop-color="#060606"/>
</linearGradient>
<linearGradient id="paint1_linear_2142_458" x1="125.59" y1="-39.6576" x2="128.564" y2="232.577" gradientUnits="userSpaceOnUse">
<stop stop-color="white"/>
<stop offset="0.857154" stop-color="#601312" stop-opacity="0.23"/>
</linearGradient>
<linearGradient id="paint2_linear_2142_458" x1="125.753" y1="96.5391" x2="125.753" y2="155.133" gradientUnits="userSpaceOnUse">
<stop stop-color="#464646"/>
<stop offset="1" stop-color="#060606"/>
</linearGradient>
<linearGradient id="paint3_linear_2142_458" x1="125.707" y1="80.4258" x2="126.501" y2="155.125" gradientUnits="userSpaceOnUse">
<stop stop-color="white"/>
<stop offset="0.857154" stop-color="#601312" stop-opacity="0.23"/>
</linearGradient>
</defs>
</svg>
