<svg width="170" height="162" viewBox="0 0 170 162" fill="none" xmlns="http://www.w3.org/2000/svg">
<path d="M77.5917 97.793C25.425 97.7409 1.70624 59.8034 1.0552 15.0221C0.91978 6.32422 7.00311 1.48047 14.5969 1.48047L75.4302 1.48047C122.889 1.48047 166.805 40.6107 168.456 97.8346C166.805 155.074 122.883 194.189 75.4094 194.189H14.5969C7.00311 194.189 0.91978 189.345 1.0552 180.647C1.70624 135.887 25.4302 97.9336 77.5864 97.8763L102.076 97.8346C114.098 97.7987 125.642 102.54 134.169 111.015C142.696 119.49 147.508 131.005 147.545 143.027V157.954" stroke="url(#paint0_linear_2142_180)" stroke-width="1.5" stroke-linecap="round" stroke-linejoin="round"/>
<path d="M77.5917 97.793C25.425 97.7409 1.70624 59.8034 1.0552 15.0221C0.91978 6.32422 7.00311 1.48047 14.5969 1.48047L75.4302 1.48047C122.889 1.48047 166.805 40.6107 168.456 97.8346C166.805 155.074 122.883 194.189 75.4094 194.189H14.5969C7.00311 194.189 0.91978 189.345 1.0552 180.647C1.70624 135.887 25.4302 97.9336 77.5864 97.8763L102.076 97.8346C114.098 97.7987 125.642 102.54 134.169 111.015C142.696 119.49 147.508 131.005 147.545 143.027V157.954" stroke="url(#paint1_linear_2142_180)" stroke-width="1.5" stroke-linecap="round" stroke-linejoin="round"/>
<path d="M77.5917 97.793C25.425 97.7409 1.70624 59.8034 1.0552 15.0221C0.91978 6.32422 7.00311 1.48047 14.5969 1.48047L75.4302 1.48047C122.889 1.48047 166.805 40.6107 168.456 97.8346C166.805 155.074 122.883 194.189 75.4094 194.189H14.5969C7.00311 194.189 0.91978 189.345 1.0552 180.647C1.70624 135.887 25.4302 97.9336 77.5864 97.8763L102.076 97.8346C114.098 97.7987 125.642 102.54 134.169 111.015C142.696 119.49 147.508 131.005 147.545 143.027V157.954" stroke="#B33C3C" stroke-width="1.5" stroke-linecap="round" stroke-linejoin="round"/>
<defs>
<linearGradient id="paint0_linear_2142_180" x1="84.7546" y1="1.48047" x2="84.7546" y2="194.189" gradientUnits="userSpaceOnUse">
<stop stop-color="#464646"/>
<stop offset="1" stop-color="#060606"/>
</linearGradient>
<linearGradient id="paint1_linear_2142_180" x1="84.6233" y1="-51.5143" x2="87.6296" y2="194.154" gradientUnits="userSpaceOnUse">
<stop stop-color="white"/>
<stop offset="0.857154" stop-color="#601312" stop-opacity="0.23"/>
</linearGradient>
</defs>
</svg>
