<svg width="170" height="196" viewBox="0 0 170 196" fill="none" xmlns="http://www.w3.org/2000/svg">
<path d="M92.1615 97.957C144.328 97.9049 168.047 59.9674 168.698 15.1862C168.833 6.48828 162.75 1.64453 155.156 1.64453L94.323 1.64453C46.8647 1.64453 2.94799 40.7747 1.29694 97.9987C2.94799 155.238 46.8699 194.353 94.3438 194.353H155.156C162.75 194.353 168.833 189.509 168.698 180.811C168.047 136.051 144.323 98.0976 92.1667 98.0404L67.6772 97.9987C55.6549 97.9627 44.1107 102.704 35.5838 111.179C27.0569 119.654 22.2456 131.169 22.2084 143.191V158.118" stroke="url(#paint0_linear_2248_1287)" stroke-width="1.5" stroke-linecap="round" stroke-linejoin="round"/>
<path d="M92.1615 97.957C144.328 97.9049 168.047 59.9674 168.698 15.1862C168.833 6.48828 162.75 1.64453 155.156 1.64453L94.323 1.64453C46.8647 1.64453 2.94799 40.7747 1.29694 97.9987C2.94799 155.238 46.8699 194.353 94.3438 194.353H155.156C162.75 194.353 168.833 189.509 168.698 180.811C168.047 136.051 144.323 98.0976 92.1667 98.0404L67.6772 97.9987C55.6549 97.9627 44.1107 102.704 35.5838 111.179C27.0569 119.654 22.2456 131.169 22.2084 143.191V158.118" stroke="url(#paint1_linear_2248_1287)" stroke-width="1.5" stroke-linecap="round" stroke-linejoin="round"/>
<path d="M92.1615 97.957C144.328 97.9049 168.047 59.9674 168.698 15.1862C168.833 6.48828 162.75 1.64453 155.156 1.64453L94.323 1.64453C46.8647 1.64453 2.94799 40.7747 1.29694 97.9987C2.94799 155.238 46.8699 194.353 94.3438 194.353H155.156C162.75 194.353 168.833 189.509 168.698 180.811C168.047 136.051 144.323 98.0976 92.1667 98.0404L67.6772 97.9987C55.6549 97.9627 44.1107 102.704 35.5838 111.179C27.0569 119.654 22.2456 131.169 22.2084 143.191V158.118" stroke="white" stroke-width="1.5" stroke-linecap="round" stroke-linejoin="round"/>
<defs>
<linearGradient id="paint0_linear_2248_1287" x1="84.9986" y1="1.64453" x2="84.9986" y2="194.353" gradientUnits="userSpaceOnUse">
<stop stop-color="#464646"/>
<stop offset="1" stop-color="#060606"/>
</linearGradient>
<linearGradient id="paint1_linear_2248_1287" x1="85.1299" y1="-51.3503" x2="82.1236" y2="194.318" gradientUnits="userSpaceOnUse">
<stop stop-color="white"/>
<stop offset="0.857154" stop-color="#601312" stop-opacity="0.23"/>
</linearGradient>
</defs>
</svg>
