<svg width="251" height="189" viewBox="0 0 251 189" fill="none" xmlns="http://www.w3.org/2000/svg">
<g id="arcticons:microsoft-designer">
<g id="Vector">
<path d="M118.591 124.961C66.4247 124.909 42.706 86.9714 42.055 42.1901C41.9195 33.4922 48.0029 28.6484 55.5966 28.6484L116.43 28.6484C163.888 28.6484 207.805 67.7786 209.456 125.003C207.805 182.242 163.883 221.357 116.409 221.357H55.5966C48.0029 221.357 41.9195 216.513 42.055 207.815C42.706 163.055 66.43 125.102 118.586 125.044L143.076 125.003C155.098 124.967 166.642 129.708 175.169 138.183C183.696 146.658 188.507 158.173 188.545 170.195V185.122" stroke="url(#paint0_linear_2571_2643)" stroke-width="1.5" stroke-linecap="round" stroke-linejoin="round"/>
<path d="M118.591 124.961C66.4247 124.909 42.706 86.9714 42.055 42.1901C41.9195 33.4922 48.0029 28.6484 55.5966 28.6484L116.43 28.6484C163.888 28.6484 207.805 67.7786 209.456 125.003C207.805 182.242 163.883 221.357 116.409 221.357H55.5966C48.0029 221.357 41.9195 216.513 42.055 207.815C42.706 163.055 66.43 125.102 118.586 125.044L143.076 125.003C155.098 124.967 166.642 129.708 175.169 138.183C183.696 146.658 188.507 158.173 188.545 170.195V185.122" stroke="url(#paint1_linear_2571_2643)" stroke-width="1.5" stroke-linecap="round" stroke-linejoin="round"/>
<path d="M118.591 124.961C66.4247 124.909 42.706 86.9714 42.055 42.1901C41.9195 33.4922 48.0029 28.6484 55.5966 28.6484L116.43 28.6484C163.888 28.6484 207.805 67.7786 209.456 125.003C207.805 182.242 163.883 221.357 116.409 221.357H55.5966C48.0029 221.357 41.9195 216.513 42.055 207.815C42.706 163.055 66.43 125.102 118.586 125.044L143.076 125.003C155.098 124.967 166.642 129.708 175.169 138.183C183.696 146.658 188.507 158.173 188.545 170.195V185.122" stroke="#B33C3C" stroke-width="1.5" stroke-linecap="round" stroke-linejoin="round"/>
</g>
</g>
<defs>
<linearGradient id="paint0_linear_2571_2643" x1="125.754" y1="28.6484" x2="125.754" y2="221.357" gradientUnits="userSpaceOnUse">
<stop stop-color="#464646"/>
<stop offset="1" stop-color="#060606"/>
</linearGradient>
<linearGradient id="paint1_linear_2571_2643" x1="125.623" y1="-24.3464" x2="128.629" y2="221.322" gradientUnits="userSpaceOnUse">
<stop stop-color="white"/>
<stop offset="0.857154" stop-color="#601312" stop-opacity="0.23"/>
</linearGradient>
</defs>
</svg>
