<svg width="211" height="167" viewBox="0 0 211 167" fill="none" xmlns="http://www.w3.org/2000/svg">
<g id="Group">
<g id="Vector">
<path d="M189.086 85.5026C189.086 45.5859 189.086 25.638 176.878 13.2318C164.669 0.825522 145.034 0.835938 105.753 0.835938L84.9193 0.835938C45.638 0.835938 25.9922 0.835938 13.7943 13.2318C1.59635 25.6276 1.58594 45.5859 1.58594 85.5026C1.58594 125.419 1.58594 145.367 13.7943 157.773C18.6901 162.742 24.7734 165.721 32.8359 167.503" stroke="url(#paint0_linear_2571_699)" stroke-width="1.5" stroke-linecap="round" stroke-linejoin="round"/>
<path d="M189.086 85.5026C189.086 45.5859 189.086 25.638 176.878 13.2318C164.669 0.825522 145.034 0.835938 105.753 0.835938L84.9193 0.835938C45.638 0.835938 25.9922 0.835938 13.7943 13.2318C1.59635 25.6276 1.58594 45.5859 1.58594 85.5026C1.58594 125.419 1.58594 145.367 13.7943 157.773C18.6901 162.742 24.7734 165.721 32.8359 167.503" stroke="url(#paint1_linear_2571_699)" stroke-width="1.5" stroke-linecap="round" stroke-linejoin="round"/>
<path d="M189.086 85.5026C189.086 45.5859 189.086 25.638 176.878 13.2318C164.669 0.825522 145.034 0.835938 105.753 0.835938L84.9193 0.835938C45.638 0.835938 25.9922 0.835938 13.7943 13.2318C1.59635 25.6276 1.58594 45.5859 1.58594 85.5026C1.58594 125.419 1.58594 145.367 13.7943 157.773C18.6901 162.742 24.7734 165.721 32.8359 167.503" stroke="#B33C3C" stroke-width="1.5" stroke-linecap="round" stroke-linejoin="round"/>
</g>
<g id="Vector_2">
<path d="M209.919 162.297C209.919 142.766 209.919 133.005 204.951 126.151C203.344 123.941 201.401 121.997 199.19 120.391C192.336 115.422 182.576 115.422 163.044 115.422H110.961C91.4297 115.422 81.6693 115.422 74.8151 120.391C72.6047 121.997 70.6607 123.941 69.0547 126.151C64.0859 133.016 64.0859 142.776 64.0859 162.297C64.0859 181.818 64.0859 191.589 69.0547 198.443C70.6639 200.654 72.6114 202.598 74.8255 204.203C81.6693 209.172 91.4297 209.172 110.961 209.172H163.044C182.576 209.172 192.336 209.172 199.19 204.203C201.401 202.597 203.344 200.653 204.951 198.443C209.919 191.589 209.919 181.828 209.919 162.297Z" stroke="url(#paint2_linear_2571_699)" stroke-width="1.5" stroke-linecap="round" stroke-linejoin="round"/>
<path d="M209.919 162.297C209.919 142.766 209.919 133.005 204.951 126.151C203.344 123.941 201.401 121.997 199.19 120.391C192.336 115.422 182.576 115.422 163.044 115.422H110.961C91.4297 115.422 81.6693 115.422 74.8151 120.391C72.6047 121.997 70.6607 123.941 69.0547 126.151C64.0859 133.016 64.0859 142.776 64.0859 162.297C64.0859 181.818 64.0859 191.589 69.0547 198.443C70.6639 200.654 72.6114 202.598 74.8255 204.203C81.6693 209.172 91.4297 209.172 110.961 209.172H163.044C182.576 209.172 192.336 209.172 199.19 204.203C201.401 202.597 203.344 200.653 204.951 198.443C209.919 191.589 209.919 181.828 209.919 162.297Z" stroke="url(#paint3_linear_2571_699)" stroke-width="1.5" stroke-linecap="round" stroke-linejoin="round"/>
<path d="M209.919 162.297C209.919 142.766 209.919 133.005 204.951 126.151C203.344 123.941 201.401 121.997 199.19 120.391C192.336 115.422 182.576 115.422 163.044 115.422H110.961C91.4297 115.422 81.6693 115.422 74.8151 120.391C72.6047 121.997 70.6607 123.941 69.0547 126.151C64.0859 133.016 64.0859 142.776 64.0859 162.297C64.0859 181.818 64.0859 191.589 69.0547 198.443C70.6639 200.654 72.6114 202.598 74.8255 204.203C81.6693 209.172 91.4297 209.172 110.961 209.172H163.044C182.576 209.172 192.336 209.172 199.19 204.203C201.401 202.597 203.344 200.653 204.951 198.443C209.919 191.589 209.919 181.828 209.919 162.297Z" stroke="#B33C3C" stroke-width="1.5" stroke-linecap="round" stroke-linejoin="round"/>
</g>
<path id="Vector_3" d="M152.627 146.667L162.211 154.927C166.242 158.396 168.252 160.135 168.252 162.292C168.252 164.448 166.242 166.188 162.211 169.656L152.627 177.917M121.377 146.667L111.794 154.927C107.763 158.396 105.752 160.135 105.752 162.292C105.752 164.448 107.763 166.188 111.794 169.656L121.377 177.917M6.79395 42.5L183.877 42.5" stroke="white" stroke-width="1.5" stroke-linecap="round" stroke-linejoin="round"/>
</g>
<defs>
<linearGradient id="paint0_linear_2571_699" x1="95.3359" y1="0.835938" x2="95.3359" y2="167.503" gradientUnits="userSpaceOnUse">
<stop stop-color="#464646"/>
<stop offset="1" stop-color="#060606"/>
</linearGradient>
<linearGradient id="paint1_linear_2571_699" x1="95.1888" y1="-44.9974" x2="97.1966" y2="167.485" gradientUnits="userSpaceOnUse">
<stop stop-color="white"/>
<stop offset="0.857154" stop-color="#601312" stop-opacity="0.23"/>
</linearGradient>
<linearGradient id="paint2_linear_2571_699" x1="137.003" y1="115.422" x2="137.003" y2="209.172" gradientUnits="userSpaceOnUse">
<stop stop-color="#464646"/>
<stop offset="1" stop-color="#060606"/>
</linearGradient>
<linearGradient id="paint3_linear_2571_699" x1="136.888" y1="89.6406" x2="137.705" y2="209.167" gradientUnits="userSpaceOnUse">
<stop stop-color="white"/>
<stop offset="0.857154" stop-color="#601312" stop-opacity="0.23"/>
</linearGradient>
</defs>
</svg>
