<svg width="250" height="250" viewBox="0 0 250 250" fill="none" xmlns="http://www.w3.org/2000/svg">
<path d="M20.834 125.003C20.834 75.8984 20.834 51.3464 36.084 36.0859C51.3548 20.8359 75.8965 20.8359 125.001 20.8359C174.105 20.8359 198.657 20.8359 213.907 36.0859C229.167 51.3568 229.167 75.8984 229.167 125.003C229.167 174.107 229.167 198.659 213.907 213.909C198.667 229.169 174.105 229.169 125.001 229.169C75.8965 229.169 51.3444 229.169 36.084 213.909C20.834 198.669 20.834 174.107 20.834 125.003Z" stroke="#464646" stroke-width="1.5"/>
<path d="M20.834 125.003C20.834 75.8984 20.834 51.3464 36.084 36.0859C51.3548 20.8359 75.8965 20.8359 125.001 20.8359C174.105 20.8359 198.657 20.8359 213.907 36.0859C229.167 51.3568 229.167 75.8984 229.167 125.003C229.167 174.107 229.167 198.659 213.907 213.909C198.667 229.169 174.105 229.169 125.001 229.169C75.8965 229.169 51.3444 229.169 36.084 213.909C20.834 198.669 20.834 174.107 20.834 125.003Z" stroke="url(#paint0_linear_3132_4410)" stroke-width="1.5"/>
<path d="M20.834 125.003C20.834 75.8984 20.834 51.3464 36.084 36.0859C51.3548 20.8359 75.8965 20.8359 125.001 20.8359C174.105 20.8359 198.657 20.8359 213.907 36.0859C229.167 51.3568 229.167 75.8984 229.167 125.003C229.167 174.107 229.167 198.659 213.907 213.909C198.667 229.169 174.105 229.169 125.001 229.169C75.8965 229.169 51.3444 229.169 36.084 213.909C20.834 198.669 20.834 174.107 20.834 125.003Z" stroke="#F61E1E" stroke-width="1.5"/>
<path d="M72.918 145.839L96.8034 121.953C98.7568 120 101.406 118.903 104.168 118.903C106.93 118.903 109.579 120 111.533 121.953L128.053 138.474C130.007 140.427 132.656 141.524 135.418 141.524C138.18 141.524 140.829 140.427 142.783 138.474L177.085 104.172M177.085 104.172V130.214M177.085 104.172H151.043" stroke="#F61E1E" stroke-width="1.5" stroke-linecap="round" stroke-linejoin="round"/>
<defs>
<linearGradient id="paint0_linear_3132_4410" x1="124.837" y1="-36.4557" x2="127.661" y2="229.141" gradientUnits="userSpaceOnUse">
<stop stop-color="white"/>
<stop offset="0.857154" stop-color="#601312" stop-opacity="0.23"/>
</linearGradient>
</defs>
</svg>
