<svg width="64" height="64" viewBox="0 0 64 64" fill="none" xmlns="http://www.w3.org/2000/svg">
<path d="M35.3922 21.084L40.1762 4.41203M38.8576 22.736L48.7722 8.51603M41.9496 25.4947L55.9829 15.54M43.6402 29.332L60.2602 24.776M45.6936 32.7187C45.7336 40.8214 37.6842 44.9134 32.5536 45.2187M21.0522 32.2387C21.1056 26.0814 25.8496 20.844 32.5269 20.684V3.33203C17.7736 3.90536 4.18023 14.4734 3.74023 32.1854L21.0522 32.2387Z" stroke="white" stroke-width="0.5" stroke-linecap="round" stroke-linejoin="round"/>
<path d="M51.9571 32.7188C51.9571 43.5801 39.7625 52.1894 32.9531 51.4427" stroke="white" stroke-width="0.5" stroke-linecap="round" stroke-linejoin="round"/>
<path d="M59.1686 32.4258C57.3686 45.2191 53.2246 55.5618 32.7806 58.7725M20.0673 33.9324C21.0126 33.9324 21.786 34.6911 21.786 35.6378C21.786 36.5844 21.0126 37.3578 20.066 37.3578C19.1193 37.3578 18.346 36.5844 18.346 35.6378C18.346 34.6911 19.1193 33.9311 20.066 33.9311M21.9593 37.9698C22.906 37.9698 23.678 38.7431 23.678 39.6764C23.678 40.6218 22.9046 41.3951 21.958 41.3951C21.0113 41.3951 20.2393 40.6218 20.2393 39.6751C20.2393 38.7418 21.0126 37.9684 21.9593 37.9684M13.8686 35.0911C15.1353 35.0911 16.1486 36.0511 16.1486 37.2378C16.1486 38.4098 15.1353 39.3698 13.8686 39.3698C12.6153 39.3698 11.59 38.4098 11.59 37.2364C11.59 36.0498 12.6166 35.0898 13.87 35.0898M16.6806 41.1684C17.9473 41.1684 18.9606 42.1284 18.9606 43.3151C18.9606 44.4871 17.9473 45.4458 16.6806 45.4458C15.4273 45.4458 14.402 44.4858 14.402 43.3138C14.402 42.1271 15.4286 41.1671 16.682 41.1671M25.65 55.1618C26.0186 55.1503 26.3857 55.213 26.7296 55.3461C27.0735 55.4793 27.3872 55.6801 27.652 55.9368C27.9168 56.1935 28.1273 56.5008 28.2711 56.8404C28.4149 57.18 28.489 57.545 28.489 57.9138C28.489 58.2826 28.4149 58.6476 28.2711 58.9872C28.1273 59.3268 27.9168 59.6341 27.652 59.8907C27.3872 60.1474 27.0735 60.3483 26.7296 60.4814C26.3857 60.6146 26.0186 60.6773 25.65 60.6658C24.1166 60.6658 22.878 59.4258 22.878 57.9058C22.878 56.4004 24.118 55.1618 25.6513 55.1618M10.6833 44.7938C12.2166 44.7938 13.4566 46.0204 13.4566 47.5391C13.4566 49.0578 12.2166 50.2831 10.6833 50.2831C9.14996 50.2831 7.91129 49.0564 7.91129 47.5378C7.91129 46.0191 9.15129 44.7925 10.6846 44.7925M25.05 41.1551C25.9966 41.1551 26.7566 41.9151 26.7566 42.8618C26.7566 43.316 26.5762 43.7516 26.255 44.0728C25.9338 44.394 25.4982 44.5744 25.044 44.5744C24.5897 44.5744 24.1541 44.394 23.8329 44.0728C23.5117 43.7516 23.3313 43.316 23.3313 42.8618C23.3313 41.9151 24.09 41.1551 25.05 41.1551ZM29.262 43.0871C30.2086 43.0871 30.982 43.8604 30.982 44.8071C30.982 45.7538 30.2086 46.5124 29.262 46.5124C28.3153 46.5124 27.542 45.7524 27.542 44.8058C27.542 43.8591 28.3153 43.0871 29.262 43.0871ZM27.5033 48.7911C28.77 48.7911 29.7953 49.7511 29.7953 50.9378C29.7953 52.1244 28.7686 53.0831 27.502 53.0831C26.25 53.0831 25.2233 52.1231 25.2233 50.9364C25.2233 49.7498 26.25 48.7911 27.5033 48.7911ZM21.4126 45.9391C22.666 45.9391 23.6913 46.8991 23.6913 48.0858C23.6913 49.2724 22.6646 50.2178 21.4113 50.2178C20.146 50.2178 19.134 49.2711 19.134 48.0844C19.134 46.8978 20.1473 45.9391 21.4126 45.9391ZM6.89929 36.3711C8.43262 36.3711 9.67129 37.5978 9.67129 39.1164C9.67129 40.6351 8.43129 41.8618 6.89796 41.8618C5.37929 41.8618 4.14062 40.6351 4.14062 39.1151C4.14062 37.5951 5.38062 36.3711 6.89929 36.3711ZM17.2006 51.2831C18.734 51.2831 19.974 52.5098 19.974 54.0298C19.974 55.5498 18.734 56.7738 17.2006 56.7738C16.4725 56.7738 15.7742 56.4845 15.2594 55.9697C14.7445 55.4548 14.4553 54.7566 14.4553 54.0284C14.4553 53.3003 14.7445 52.6021 15.2594 52.0872C15.7742 51.5724 16.4725 51.2831 17.2006 51.2831Z" stroke="black" stroke-width="0.5" stroke-linecap="round" stroke-linejoin="round"/>
</svg>
