<svg width="250" height="250" viewBox="0 0 250 250" fill="none" xmlns="http://www.w3.org/2000/svg">
<path d="M132.161 124.961C184.327 124.909 208.046 86.9714 208.697 42.1901C208.832 33.4922 202.749 28.6484 195.155 28.6484L134.322 28.6484C86.8637 28.6484 42.947 67.7786 41.296 125.003C42.947 182.242 86.8689 221.357 134.343 221.357H195.155C202.749 221.357 208.832 216.513 208.697 207.815C208.046 163.055 184.322 125.102 132.166 125.044L107.676 125.003C95.6539 124.967 84.1097 129.708 75.5828 138.183C67.0559 146.658 62.2447 158.173 62.2074 170.195V185.122" stroke="#464646" stroke-width="1.5" stroke-linecap="round" stroke-linejoin="round"/>
<path d="M132.161 124.961C184.327 124.909 208.046 86.9714 208.697 42.1901C208.832 33.4922 202.749 28.6484 195.155 28.6484L134.322 28.6484C86.8637 28.6484 42.947 67.7786 41.296 125.003C42.947 182.242 86.8689 221.357 134.343 221.357H195.155C202.749 221.357 208.832 216.513 208.697 207.815C208.046 163.055 184.322 125.102 132.166 125.044L107.676 125.003C95.6539 124.967 84.1097 129.708 75.5828 138.183C67.0559 146.658 62.2447 158.173 62.2074 170.195V185.122" stroke="url(#paint0_linear_3132_4479)" stroke-width="1.5" stroke-linecap="round" stroke-linejoin="round"/>
<path d="M132.161 124.961C184.327 124.909 208.046 86.9714 208.697 42.1901C208.832 33.4922 202.749 28.6484 195.155 28.6484L134.322 28.6484C86.8637 28.6484 42.947 67.7786 41.296 125.003C42.947 182.242 86.8689 221.357 134.343 221.357H195.155C202.749 221.357 208.832 216.513 208.697 207.815C208.046 163.055 184.322 125.102 132.166 125.044L107.676 125.003C95.6539 124.967 84.1097 129.708 75.5828 138.183C67.0559 146.658 62.2447 158.173 62.2074 170.195V185.122" stroke="#F61E1E" stroke-width="1.5" stroke-linecap="round" stroke-linejoin="round"/>
<defs>
<linearGradient id="paint0_linear_3132_4479" x1="125.129" y1="-24.3464" x2="122.123" y2="221.322" gradientUnits="userSpaceOnUse">
<stop stop-color="white"/>
<stop offset="0.857154" stop-color="#601312" stop-opacity="0.23"/>
</linearGradient>
</defs>
</svg>
