<svg width="250" height="250" viewBox="0 0 250 250" fill="none" xmlns="http://www.w3.org/2000/svg">
<path d="M45.6985 135.409C45.2312 131.957 44.9807 128.48 44.9485 124.997C44.979 121.515 45.2277 118.037 45.6933 114.586L23.1152 96.9141C22.1161 96.1191 21.4368 94.991 21.2015 93.7361C20.9662 92.4812 21.1907 91.1836 21.8339 90.0807L43.1881 53.0859C43.8179 51.9865 44.822 51.1502 46.0171 50.7295C47.2123 50.3088 48.5189 50.3318 49.6985 50.7943L76.287 61.5234C81.8233 57.2549 87.8872 53.7188 94.3287 51.0026L98.3339 22.7109C98.5667 21.4608 99.2262 20.3303 100.2 19.5124C101.174 18.6946 102.401 18.2401 103.672 18.2266L146.381 18.2266C147.649 18.233 148.874 18.6861 149.84 19.5063C150.807 20.3264 151.454 21.4611 151.667 22.7109L155.667 51.0078C162.121 53.7006 168.189 57.2366 173.714 61.5234L200.297 50.7943C201.479 50.3424 202.782 50.3247 203.976 50.7444C205.169 51.1642 206.175 51.9939 206.813 53.0859L228.167 90.0859C228.8 91.1916 229.018 92.4863 228.783 93.7382C228.549 94.9902 227.876 96.1178 226.886 96.9193L204.355 114.591C204.822 118.041 205.072 121.516 205.105 124.997C205.073 128.48 204.822 131.957 204.355 135.409L226.886 153.081C227.885 153.876 228.564 155.004 228.8 156.259C229.035 157.514 228.81 158.811 228.167 159.914L206.813 196.909C206.183 198.008 205.179 198.845 203.984 199.265C202.789 199.686 201.482 199.663 200.303 199.201L173.714 188.471C168.178 192.74 162.114 196.276 155.672 198.992L151.667 227.284C151.454 228.534 150.807 229.668 149.84 230.489C148.874 231.309 147.649 231.762 146.381 231.768H103.672C102.405 231.762 101.18 231.309 100.213 230.489C99.2459 229.668 98.5991 228.534 98.386 227.284L94.386 198.992C87.932 196.298 81.8636 192.76 76.3391 188.471L49.7558 199.201C48.5749 199.651 47.2726 199.668 46.0804 199.248C44.8883 198.829 43.8837 198 43.2454 196.909L21.8912 159.909C21.2587 158.803 21.0403 157.509 21.2751 156.257C21.5098 155.005 22.1824 153.877 23.1725 153.076L45.6985 135.409Z" stroke="url(#paint0_linear_3143_1546)" stroke-width="1.5" stroke-linecap="round" stroke-linejoin="round"/>
<path d="M45.6985 135.409C45.2312 131.957 44.9807 128.48 44.9485 124.997C44.979 121.515 45.2277 118.037 45.6933 114.586L23.1152 96.9141C22.1161 96.1191 21.4368 94.991 21.2015 93.7361C20.9662 92.4812 21.1907 91.1836 21.8339 90.0807L43.1881 53.0859C43.8179 51.9865 44.822 51.1502 46.0171 50.7295C47.2123 50.3088 48.5189 50.3318 49.6985 50.7943L76.287 61.5234C81.8233 57.2549 87.8872 53.7188 94.3287 51.0026L98.3339 22.7109C98.5667 21.4608 99.2262 20.3303 100.2 19.5124C101.174 18.6946 102.401 18.2401 103.672 18.2266L146.381 18.2266C147.649 18.233 148.874 18.6861 149.84 19.5063C150.807 20.3264 151.454 21.4611 151.667 22.7109L155.667 51.0078C162.121 53.7006 168.189 57.2366 173.714 61.5234L200.297 50.7943C201.479 50.3424 202.782 50.3247 203.976 50.7444C205.169 51.1642 206.175 51.9939 206.813 53.0859L228.167 90.0859C228.8 91.1916 229.018 92.4863 228.783 93.7382C228.549 94.9902 227.876 96.1178 226.886 96.9193L204.355 114.591C204.822 118.041 205.072 121.516 205.105 124.997C205.073 128.48 204.822 131.957 204.355 135.409L226.886 153.081C227.885 153.876 228.564 155.004 228.8 156.259C229.035 157.514 228.81 158.811 228.167 159.914L206.813 196.909C206.183 198.008 205.179 198.845 203.984 199.265C202.789 199.686 201.482 199.663 200.303 199.201L173.714 188.471C168.178 192.74 162.114 196.276 155.672 198.992L151.667 227.284C151.454 228.534 150.807 229.668 149.84 230.489C148.874 231.309 147.649 231.762 146.381 231.768H103.672C102.405 231.762 101.18 231.309 100.213 230.489C99.2459 229.668 98.5991 228.534 98.386 227.284L94.386 198.992C87.932 196.298 81.8636 192.76 76.3391 188.471L49.7558 199.201C48.5749 199.651 47.2726 199.668 46.0804 199.248C44.8883 198.829 43.8837 198 43.2454 196.909L21.8912 159.909C21.2587 158.803 21.0403 157.509 21.2751 156.257C21.5098 155.005 22.1824 153.877 23.1725 153.076L45.6985 135.409Z" stroke="url(#paint1_linear_3143_1546)" stroke-width="1.5" stroke-linecap="round" stroke-linejoin="round"/>
<path d="M45.6985 135.409C45.2312 131.957 44.9807 128.48 44.9485 124.997C44.979 121.515 45.2277 118.037 45.6933 114.586L23.1152 96.9141C22.1161 96.1191 21.4368 94.991 21.2015 93.7361C20.9662 92.4812 21.1907 91.1836 21.8339 90.0807L43.1881 53.0859C43.8179 51.9865 44.822 51.1502 46.0171 50.7295C47.2123 50.3088 48.5189 50.3318 49.6985 50.7943L76.287 61.5234C81.8233 57.2549 87.8872 53.7188 94.3287 51.0026L98.3339 22.7109C98.5667 21.4608 99.2262 20.3303 100.2 19.5124C101.174 18.6946 102.401 18.2401 103.672 18.2266L146.381 18.2266C147.649 18.233 148.874 18.6861 149.84 19.5063C150.807 20.3264 151.454 21.4611 151.667 22.7109L155.667 51.0078C162.121 53.7006 168.189 57.2366 173.714 61.5234L200.297 50.7943C201.479 50.3424 202.782 50.3247 203.976 50.7444C205.169 51.1642 206.175 51.9939 206.813 53.0859L228.167 90.0859C228.8 91.1916 229.018 92.4863 228.783 93.7382C228.549 94.9902 227.876 96.1178 226.886 96.9193L204.355 114.591C204.822 118.041 205.072 121.516 205.105 124.997C205.073 128.48 204.822 131.957 204.355 135.409L226.886 153.081C227.885 153.876 228.564 155.004 228.8 156.259C229.035 157.514 228.81 158.811 228.167 159.914L206.813 196.909C206.183 198.008 205.179 198.845 203.984 199.265C202.789 199.686 201.482 199.663 200.303 199.201L173.714 188.471C168.178 192.74 162.114 196.276 155.672 198.992L151.667 227.284C151.454 228.534 150.807 229.668 149.84 230.489C148.874 231.309 147.649 231.762 146.381 231.768H103.672C102.405 231.762 101.18 231.309 100.213 230.489C99.2459 229.668 98.5991 228.534 98.386 227.284L94.386 198.992C87.932 196.298 81.8636 192.76 76.3391 188.471L49.7558 199.201C48.5749 199.651 47.2726 199.668 46.0804 199.248C44.8883 198.829 43.8837 198 43.2454 196.909L21.8912 159.909C21.2587 158.803 21.0403 157.509 21.2751 156.257C21.5098 155.005 22.1824 153.877 23.1725 153.076L45.6985 135.409Z" stroke="white" stroke-width="1.5" stroke-linecap="round" stroke-linejoin="round"/>
<path d="M125 154.297C108.82 154.297 95.7031 141.18 95.7031 125C95.7031 108.82 108.82 95.7031 125 95.7031C141.18 95.7031 154.297 108.82 154.297 125C154.297 141.18 141.18 154.297 125 154.297Z" stroke="white" stroke-width="1.5" stroke-linecap="round" stroke-linejoin="round"/>
<path d="M125 95.7031C135.796 95.849 146.398 98.5863 155.915 103.685C165.432 108.783 173.585 116.093 179.688 125C173.585 133.907 165.432 141.217 155.915 146.315C146.398 151.414 135.796 154.151 125 154.297C114.204 154.151 103.602 151.414 94.0847 146.315C84.5677 141.217 76.4149 133.907 70.3125 125C76.4149 116.093 84.5677 108.783 94.0847 103.685C103.602 98.5863 114.204 95.849 125 95.7031Z" stroke="white" stroke-width="1.5" stroke-linecap="round" stroke-linejoin="round"/>
<path d="M125 121.844C123.257 121.844 121.844 123.257 121.844 125C121.844 126.743 123.257 128.156 125 128.156C126.743 128.156 128.156 126.743 128.156 125C128.156 123.257 126.743 121.844 125 121.844Z" stroke="white" stroke-width="1.5"/>
<defs>
<linearGradient id="paint0_linear_3143_1546" x1="125.001" y1="18.2266" x2="125.001" y2="231.768" gradientUnits="userSpaceOnUse">
<stop stop-color="#464646"/>
<stop offset="1" stop-color="#060606"/>
</linearGradient>
<linearGradient id="paint1_linear_3143_1546" x1="125.164" y1="-40.4974" x2="122.189" y2="231.738" gradientUnits="userSpaceOnUse">
<stop stop-color="white"/>
<stop offset="0.857154" stop-color="#601312" stop-opacity="0.23"/>
</linearGradient>
</defs>
</svg>
