<svg width="210" height="210" viewBox="0 0 210 210" fill="none" xmlns="http://www.w3.org/2000/svg">
<path d="M0.833008 105.003C0.833008 55.8984 0.833008 31.3464 16.083 16.0859C31.3538 0.835938 55.8955 0.835938 105 0.835938C154.104 0.835938 178.656 0.835938 193.906 16.0859C209.166 31.3568 209.166 55.8984 209.166 105.003C209.166 154.107 209.166 178.659 193.906 193.909C178.666 209.169 154.104 209.169 105 209.169C55.8955 209.169 31.3434 209.169 16.083 193.909C0.833008 178.669 0.833008 154.107 0.833008 105.003Z" stroke="url(#paint0_linear_2588_2907)" stroke-width="1.5"/>
<path d="M0.833008 105.003C0.833008 55.8984 0.833008 31.3464 16.083 16.0859C31.3538 0.835938 55.8955 0.835938 105 0.835938C154.104 0.835938 178.656 0.835938 193.906 16.0859C209.166 31.3568 209.166 55.8984 209.166 105.003C209.166 154.107 209.166 178.659 193.906 193.909C178.666 209.169 154.104 209.169 105 209.169C55.8955 209.169 31.3434 209.169 16.083 193.909C0.833008 178.669 0.833008 154.107 0.833008 105.003Z" stroke="url(#paint1_linear_2588_2907)" stroke-width="1.5"/>
<path d="M0.833008 105.003C0.833008 55.8984 0.833008 31.3464 16.083 16.0859C31.3538 0.835938 55.8955 0.835938 105 0.835938C154.104 0.835938 178.656 0.835938 193.906 16.0859C209.166 31.3568 209.166 55.8984 209.166 105.003C209.166 154.107 209.166 178.659 193.906 193.909C178.666 209.169 154.104 209.169 105 209.169C55.8955 209.169 31.3434 209.169 16.083 193.909C0.833008 178.669 0.833008 154.107 0.833008 105.003Z" stroke="white" stroke-width="1.5"/>
<path d="M52.916 125.839L76.8014 101.953C78.7548 100 81.4039 98.9033 84.166 98.9033C86.9281 98.9033 89.5772 100 91.5306 101.953L108.051 118.474C110.005 120.427 112.654 121.524 115.416 121.524C118.178 121.524 120.827 120.427 122.781 118.474L157.083 84.1719M157.083 84.1719V110.214M157.083 84.1719H131.041" stroke="white" stroke-width="1.5" stroke-linecap="round" stroke-linejoin="round"/>
<defs>
<linearGradient id="paint0_linear_2588_2907" x1="105" y1="0.835937" x2="105" y2="209.169" gradientUnits="userSpaceOnUse">
<stop stop-color="#464646"/>
<stop offset="1" stop-color="#060606"/>
</linearGradient>
<linearGradient id="paint1_linear_2588_2907" x1="104.836" y1="-56.4557" x2="107.66" y2="209.141" gradientUnits="userSpaceOnUse">
<stop stop-color="white"/>
<stop offset="0.857154" stop-color="#601312" stop-opacity="0.23"/>
</linearGradient>
</defs>
</svg>
