<svg width="211" height="169" viewBox="0 0 211 169" fill="none" xmlns="http://www.w3.org/2000/svg">
<g id="Group">
<g id="Vector">
<path d="M1.58594 105.003C1.58594 55.8984 1.58594 31.3464 16.8359 16.0859C32.1068 0.835938 56.6484 0.835938 105.753 0.835938C154.857 0.835938 179.409 0.835938 194.659 16.0859C209.919 31.3568 209.919 55.8984 209.919 105.003C209.919 154.107 209.919 178.659 194.659 193.909C179.419 209.169 154.857 209.169 105.753 209.169C56.6484 209.169 32.0964 209.169 16.8359 193.909C1.58594 178.669 1.58594 154.107 1.58594 105.003Z" stroke="url(#paint0_linear_2571_1202)" stroke-width="1.5"/>
<path d="M1.58594 105.003C1.58594 55.8984 1.58594 31.3464 16.8359 16.0859C32.1068 0.835938 56.6484 0.835938 105.753 0.835938C154.857 0.835938 179.409 0.835938 194.659 16.0859C209.919 31.3568 209.919 55.8984 209.919 105.003C209.919 154.107 209.919 178.659 194.659 193.909C179.419 209.169 154.857 209.169 105.753 209.169C56.6484 209.169 32.0964 209.169 16.8359 193.909C1.58594 178.669 1.58594 154.107 1.58594 105.003Z" stroke="url(#paint1_linear_2571_1202)" stroke-width="1.5"/>
<path d="M1.58594 105.003C1.58594 55.8984 1.58594 31.3464 16.8359 16.0859C32.1068 0.835938 56.6484 0.835938 105.753 0.835938C154.857 0.835938 179.409 0.835938 194.659 16.0859C209.919 31.3568 209.919 55.8984 209.919 105.003C209.919 154.107 209.919 178.659 194.659 193.909C179.419 209.169 154.857 209.169 105.753 209.169C56.6484 209.169 32.0964 209.169 16.8359 193.909C1.58594 178.669 1.58594 154.107 1.58594 105.003Z" stroke="#B33C3C" stroke-width="1.5"/>
</g>
<path id="Vector_2" d="M53.6689 125.839L77.5544 101.953C79.5078 100 82.1568 98.9033 84.9189 98.9033C87.6811 98.9033 90.3301 100 92.2835 101.953L108.804 118.474C110.758 120.427 113.407 121.524 116.169 121.524C118.931 121.524 121.58 120.427 123.534 118.474L157.836 84.1719M157.836 84.1719V110.214M157.836 84.1719H131.794" stroke="#B33C3C" stroke-width="1.5" stroke-linecap="round" stroke-linejoin="round"/>
</g>
<defs>
<linearGradient id="paint0_linear_2571_1202" x1="105.753" y1="0.835937" x2="105.753" y2="209.169" gradientUnits="userSpaceOnUse">
<stop stop-color="#464646"/>
<stop offset="1" stop-color="#060606"/>
</linearGradient>
<linearGradient id="paint1_linear_2571_1202" x1="105.589" y1="-56.4557" x2="108.413" y2="209.141" gradientUnits="userSpaceOnUse">
<stop stop-color="white"/>
<stop offset="0.857154" stop-color="#601312" stop-opacity="0.23"/>
</linearGradient>
</defs>
</svg>
