<svg width="120" height="108" viewBox="0 0 120 108" fill="none" xmlns="http://www.w3.org/2000/svg">
<path opacity="0.6" d="M117.746 2.18121C119.616 3.90321 120.255 6.60921 119.911 9.06921C117.451 28.5032 115.04 47.9864 112.58 67.4204C112.334 69.6836 111.35 72.0452 109.382 73.3244C107.02 74.948 103.822 74.1116 101.805 72.2912C84.9297 58.2692 68.0541 44.2472 51.1785 30.2252C49.3089 28.7 47.9313 26.24 48.5217 23.8292C49.1121 21.2708 51.4737 19.5488 53.8353 18.7616C72.4821 12.8084 91.1781 6.806 109.825 0.852803C112.432 -0.0327967 115.68 0.164006 117.746 2.18121Z" fill="#F84B4B"/>
<path opacity="0.8" d="M69.7461 35.6219C71.6157 37.3439 72.2553 40.0499 71.9109 42.5591C69.4509 62.0423 67.0401 81.4763 64.5801 100.959C64.3341 103.223 63.3501 105.584 61.3821 106.863C59.0205 108.487 55.7733 107.651 53.8053 105.83C36.9297 91.8083 20.0049 77.7371 3.12928 63.7151C1.25968 62.1899 -0.117928 59.7299 0.472473 57.3191C1.06287 54.7607 3.42448 53.0387 5.78608 52.2515C24.4821 46.2491 43.1289 40.2959 61.8249 34.3427C64.4817 33.4079 67.6797 33.6047 69.7461 35.6219Z" fill="#F61E1E"/>
</svg>
