<svg width="250" height="251" viewBox="0 0 250 251" fill="none" xmlns="http://www.w3.org/2000/svg">
<path d="M33.5811 23.4688C29.7811 26.9688 28.4812 32.4688 29.1812 37.4688C34.1812 76.9688 39.0811 116.569 44.0811 156.069C44.5811 160.669 46.5811 165.469 50.5811 168.069C55.3811 171.369 61.8811 169.669 65.9811 165.969C100.281 137.469 134.581 108.969 168.881 80.4688C172.681 77.3688 175.481 72.3688 174.281 67.4688C173.081 62.2688 168.281 58.7688 163.481 57.1688C125.581 45.0688 87.5812 32.8688 49.6812 20.7688C44.3812 18.9688 37.7811 19.3688 33.5811 23.4688Z" fill="#F84B4B"/>
<path opacity="0.8" d="M85.5811 91.4435C81.7811 94.9435 80.4812 100.443 81.1812 105.543C86.1812 145.143 91.0811 184.643 96.0811 224.243C96.5811 228.843 98.5811 233.643 102.581 236.243C107.381 239.543 113.981 237.844 117.981 234.144C152.281 205.644 186.681 177.043 220.981 148.543C224.781 145.443 227.581 140.443 226.381 135.543C225.181 130.343 220.381 126.843 215.581 125.243C177.581 113.043 139.681 100.943 101.681 88.8435C96.2812 86.9435 89.7811 87.3435 85.5811 91.4435Z" fill="#F61E1E"/>
</svg>
