<svg width="200" height="58" viewBox="0 0 200 58" fill="none" xmlns="http://www.w3.org/2000/svg">
<path d="M12.4839 18.0117L18.742 31.9962L25.0323 18.0117H35.5485L21.742 43.7251H15.742L1.93555 18.0117H12.4839Z" fill="#F61E1E"/>
<path d="M33.6756 3.70682C34.7078 2.67571 35.9659 2.16016 37.3853 2.16016C38.8046 2.16016 40.0627 2.67571 41.0949 3.70682C42.1272 4.73793 42.6433 5.96238 42.6433 7.41238C42.6433 8.86238 42.1272 10.0868 41.0949 11.1179C40.0627 12.149 38.8369 12.6646 37.3853 12.6646C35.9336 12.6646 34.7078 12.149 33.6756 11.1179C32.6433 10.0868 32.1272 8.83016 32.1272 7.41238C32.1272 5.96238 32.6433 4.73793 33.6756 3.70682ZM32.8369 18.0135V43.7268H41.7078V18.0135H32.8369Z" fill="#F61E1E"/>
<path d="M43.272 43.7259V18.0126H52.1429V21.7181H52.2397C52.3042 21.5893 52.401 21.4281 52.5623 21.2026C52.7236 21.0093 53.0462 20.6548 53.53 20.1393C54.0462 19.6237 54.5623 19.2048 55.1429 18.7859C55.7236 18.3993 56.4333 18.0126 57.3365 17.6904C58.2397 17.3681 59.1752 17.207 60.1107 17.207C61.0784 17.207 62.0462 17.3359 62.9816 17.5937C63.9171 17.8515 64.5946 18.1415 65.0462 18.3993L65.7558 18.7859L62.0462 26.2937C60.9494 25.3593 59.401 24.8759 57.4333 24.8759C56.3687 24.8759 55.4333 25.1015 54.6591 25.5848C53.8849 26.0359 53.3365 26.6159 53.0462 27.2926C52.7236 27.9693 52.4978 28.517 52.3687 29.0004C52.2397 29.4515 52.1752 29.8381 52.1752 30.0959V43.6293H43.272V43.7259Z" fill="#F61E1E"/>
<path d="M65.2728 40.534C62.8535 37.924 61.6599 34.7018 61.6599 30.8995C61.6599 27.0973 62.8535 23.8751 65.2728 21.2329C67.6922 18.5906 70.7567 17.2695 74.4664 17.2695C77.8857 17.2695 80.6922 18.3329 82.8857 20.4918V18.0429H91.7567V43.7562H82.9825V40.8562H82.8857C80.6922 43.3051 77.8857 44.5295 74.4664 44.5295C70.7567 44.4651 67.6922 43.1762 65.2728 40.534ZM72.8212 26.5495C71.6599 27.6773 71.0793 29.1273 71.0793 30.8995C71.0793 32.6718 71.6277 34.1218 72.7244 35.2495C73.8212 36.3773 75.2728 36.9251 77.0793 36.9251C78.8212 36.9251 80.2406 36.3451 81.3696 35.2173C82.4986 34.0895 83.047 32.6395 83.047 30.8995C83.047 29.1273 82.4664 27.6773 81.3051 26.5495C80.1438 25.4218 78.7567 24.8418 77.0793 24.8418C75.4018 24.8418 73.9825 25.4218 72.8212 26.5495Z" fill="#F61E1E"/>
<path d="M93.0708 43.7256V0.644531H101.942V43.7579H93.0708V43.7256Z" fill="#F61E1E"/>
<path d="M138.695 21.2345C141.114 23.8768 142.307 27.099 142.307 30.9012C142.307 34.7034 141.114 37.9256 138.695 40.5356C136.275 43.1456 133.243 44.4668 129.501 44.4668C126.082 44.4668 123.275 43.2423 121.082 40.7934H120.985V43.6934H112.211V0.644531H121.082V20.4934C123.275 18.3668 126.114 17.2712 129.501 17.2712C133.243 17.2712 136.307 18.5923 138.695 21.2345ZM131.243 35.2512C132.34 34.1234 132.888 32.6734 132.888 30.9012C132.888 29.129 132.307 27.679 131.146 26.5512C129.985 25.4234 128.566 24.8434 126.856 24.8434C125.178 24.8434 123.759 25.4234 122.598 26.5512C121.437 27.679 120.856 29.129 120.856 30.9012C120.856 32.6412 121.404 34.059 122.533 35.219C123.662 36.3468 125.082 36.9268 126.824 36.9268C128.662 36.9268 130.114 36.3468 131.243 35.2512Z" fill="#F61E1E"/>
<path d="M150.138 18.0117V30.2562C150.138 32.8017 150.525 34.6062 151.299 35.6695C152.073 36.7328 153.364 37.2806 155.202 37.2806C157.041 37.2806 158.364 36.7328 159.106 35.6695C159.88 34.6062 160.267 32.8017 160.267 30.2562V18.0117H169.138V32.3828C169.138 36.6684 168.009 39.7295 165.783 41.6306C163.557 43.5317 160.009 44.4662 155.17 44.4662C150.331 44.4662 146.783 43.5317 144.557 41.6306C142.331 39.7295 141.235 36.6684 141.235 32.3828V18.0117H150.138Z" fill="#F61E1E"/>
<path d="M168.791 50.0395L176.082 46.4951C177.404 48.6862 179.727 49.7818 183.049 49.7818C184.598 49.7818 186.017 49.2984 187.34 48.2995C188.662 47.3006 189.307 45.7862 189.307 43.7562V41.8551C187.727 43.5951 184.92 44.4651 180.888 44.4651C177.178 44.4651 174.114 43.144 171.694 40.534C169.275 37.924 168.082 34.7018 168.082 30.8995C168.082 27.0973 169.275 23.8751 171.694 21.2329C174.114 18.5906 177.178 17.2695 180.888 17.2695C184.211 17.2695 186.953 18.3006 189.178 20.3306H189.34V18.0106H198.178V44.4329C198.178 48.6218 196.791 51.844 194.017 54.0995C191.243 56.3873 187.565 57.5151 183.017 57.5151C175.662 57.5151 170.92 55.034 168.791 50.0395ZM179.243 26.5495C178.082 27.6773 177.501 29.1273 177.501 30.8995C177.501 32.6718 178.049 34.1218 179.146 35.2495C180.243 36.3773 181.694 36.9251 183.501 36.9251C185.243 36.9251 186.662 36.3451 187.791 35.2173C188.92 34.0895 189.469 32.6395 189.469 30.8995C189.469 29.1273 188.888 27.6773 187.727 26.5495C186.565 25.4218 185.178 24.8418 183.501 24.8418C181.823 24.8418 180.404 25.4218 179.243 26.5495Z" fill="#F61E1E"/>
<path d="M11.8858 50.3555C12.3052 50.3555 12.6923 50.4521 13.0148 50.6777C13.3374 50.9032 13.5632 51.1932 13.7245 51.5477C13.8858 51.9021 13.9503 52.321 13.9503 52.7721C13.9503 53.2232 13.8858 53.6421 13.7245 53.9966C13.5632 54.351 13.3374 54.641 13.0148 54.8666C12.6923 55.0921 12.3374 55.1888 11.8858 55.1888H10.1761C10.0794 55.1888 10.0148 55.1566 9.91806 55.0921C9.85355 55.0277 9.82129 54.9632 9.82129 54.8666V50.6777C9.82129 50.581 9.85355 50.5166 9.91806 50.4521C9.98258 50.3877 10.0794 50.3555 10.1761 50.3555H11.8858ZM11.8213 54.5444C12.3052 54.5444 12.6277 54.3832 12.8858 54.061C13.1116 53.7388 13.2406 53.2877 13.2406 52.7721C13.2406 52.2566 13.1116 51.8377 12.8858 51.4832C12.66 51.161 12.3052 50.9677 11.8213 50.9677H10.531V54.5444H11.8213Z" fill="white"/>
<path d="M20.0244 54.8666C20.0244 54.9632 19.9921 55.0277 19.9276 55.1244C19.8631 55.1888 19.7663 55.221 19.6695 55.221C19.5728 55.221 19.476 55.1888 19.4115 55.1244C19.347 55.0599 19.3147 54.9632 19.3147 54.8666V50.6777C19.3147 50.581 19.347 50.5166 19.4115 50.4521C19.476 50.3877 19.5728 50.3555 19.6695 50.3555C19.7663 50.3555 19.8308 50.3877 19.8953 50.4521C19.9599 50.5166 19.9921 50.581 19.9921 50.6777V54.8666H20.0244Z" fill="white"/>
<path d="M29.2361 52.6452C29.3329 52.6452 29.3974 52.6774 29.4619 52.7419C29.5265 52.8063 29.5587 52.8707 29.5587 52.9674V54.5141C29.5587 54.643 29.4942 54.7396 29.3974 54.8041C29.1716 54.933 28.9458 55.0619 28.6878 55.1263C28.4297 55.1907 28.1716 55.2552 27.9136 55.2552C27.4619 55.2552 27.0426 55.1585 26.6555 54.933C26.2684 54.7074 25.9781 54.4174 25.7523 54.0308C25.5265 53.6441 25.4297 53.2252 25.4297 52.7741C25.4297 52.323 25.5265 51.9041 25.7523 51.5174C25.9781 51.1307 26.2684 50.8407 26.6555 50.6152C27.0426 50.3896 27.4619 50.293 27.9136 50.293C28.1394 50.293 28.3652 50.3252 28.591 50.3574C28.8168 50.4219 29.0103 50.4863 29.1716 50.583C29.2361 50.6152 29.2684 50.6474 29.3007 50.7119C29.3329 50.7441 29.3329 50.8085 29.3329 50.873C29.3329 50.9696 29.3007 51.0341 29.2361 51.1307C29.1716 51.1952 29.1071 51.2274 29.0103 51.2274C28.9458 51.2274 28.8813 51.1952 28.8168 51.163C28.5265 51.0341 28.2039 50.9696 27.9136 50.9696C27.591 50.9696 27.2684 51.0341 27.0103 51.2274C26.7523 51.3885 26.5265 51.6141 26.3652 51.9041C26.2039 52.1941 26.1394 52.4841 26.1394 52.8385C26.1394 53.1607 26.2039 53.483 26.3652 53.773C26.5265 54.063 26.7523 54.2885 27.0103 54.4496C27.3007 54.6107 27.591 54.7074 27.9136 54.7074C28.0749 54.7074 28.2361 54.6752 28.3974 54.643C28.5587 54.6107 28.72 54.5463 28.849 54.5141V53.4185H28.0103C27.9136 53.4185 27.849 53.3863 27.7523 53.3219C27.6878 53.2574 27.6555 53.193 27.6555 53.0963C27.6555 52.9996 27.6878 52.9352 27.7523 52.8707C27.8168 52.8063 27.9136 52.7741 28.0103 52.7741H29.2361V52.6452Z" fill="white"/>
<path d="M35.6799 54.8666C35.6799 54.9632 35.6476 55.0277 35.5831 55.1244C35.5186 55.1888 35.4218 55.221 35.3251 55.221C35.2283 55.221 35.1315 55.1888 35.067 55.1244C35.0025 55.0599 34.9702 54.9632 34.9702 54.8666V50.6777C34.9702 50.581 35.0025 50.5166 35.067 50.4521C35.1315 50.3877 35.2283 50.3555 35.3251 50.3555C35.4218 50.3555 35.4863 50.3877 35.5509 50.4521C35.6154 50.5166 35.6476 50.581 35.6476 50.6777V54.8666H35.6799Z" fill="white"/>
<path d="M44.5046 50.3564C44.6014 50.3564 44.6982 50.3887 44.7627 50.4531C44.8272 50.5176 44.8595 50.582 44.8595 50.6787C44.8595 50.7753 44.8272 50.872 44.7627 50.9042C44.6982 50.9687 44.6337 50.9687 44.5046 50.9687H43.2788V54.8353C43.2788 54.932 43.2466 54.9964 43.182 55.0609C43.1175 55.1253 43.0208 55.1576 42.924 55.1576C42.8272 55.1576 42.7304 55.1253 42.6659 55.0609C42.6014 54.9964 42.5691 54.932 42.5691 54.8353V50.9687H41.3433C41.2466 50.9687 41.182 50.9364 41.1175 50.872C41.053 50.8076 41.0208 50.7431 41.0208 50.6464C41.0208 50.5498 41.053 50.4853 41.1175 50.4209C41.182 50.3564 41.2466 50.3242 41.3433 50.3242H44.5046V50.3564Z" fill="white"/>
<path d="M53.8661 54.7696C53.8661 54.8018 53.8983 54.8663 53.8983 54.8985C53.8983 54.9952 53.8661 55.0596 53.8016 55.124C53.7371 55.1885 53.6725 55.2207 53.5758 55.2207C53.5113 55.2207 53.4467 55.1885 53.4145 55.1563C53.35 55.124 53.3177 55.0596 53.2854 54.9952L52.8661 53.9963H50.7371L50.3177 55.0274C50.2854 55.0918 50.2532 55.1563 50.1887 55.1885C50.1242 55.2207 50.0919 55.2529 50.0274 55.2529C49.9306 55.2529 49.8661 55.2207 49.8016 55.1885C49.7371 55.124 49.7371 55.0596 49.7371 54.9952C49.7371 54.9629 49.7371 54.9307 49.7371 54.8663L51.5113 50.6129C51.5435 50.5485 51.5758 50.484 51.6403 50.4518C51.7048 50.4196 51.7693 50.3874 51.8338 50.4196C51.8984 50.4196 51.9629 50.4518 52.0274 50.484C52.0919 50.5163 52.1242 50.5807 52.1564 50.6452L53.8661 54.7696ZM50.9629 53.3518H52.5758L51.7693 51.4185L50.9629 53.3518Z" fill="white"/>
<path d="M61.7768 54.5444C61.8736 54.5444 61.9704 54.5766 62.0349 54.641C62.0994 54.7055 62.1317 54.7699 62.1317 54.8666C62.1317 54.9632 62.0994 55.0277 62.0349 55.0921C61.9704 55.1566 61.9058 55.1888 61.7768 55.1888H59.422C59.3252 55.1888 59.2284 55.1566 59.1639 55.0921C59.0994 55.0277 59.0671 54.9632 59.0671 54.8666V50.6777C59.0671 50.581 59.0994 50.5166 59.1639 50.4521C59.2284 50.3877 59.3252 50.3555 59.422 50.3555C59.5188 50.3555 59.5833 50.3877 59.6478 50.4521C59.7123 50.5166 59.7446 50.581 59.7446 50.6777V54.5444H61.7768Z" fill="white"/>
<path d="M78.0645 50.3555C78.1613 50.3555 78.2258 50.3877 78.2903 50.4521C78.3548 50.5166 78.3871 50.581 78.3871 50.6777V54.8666C78.3871 54.9632 78.3548 55.0277 78.2903 55.0921C78.2258 55.1566 78.1613 55.1888 78.0322 55.1888C77.9355 55.1888 77.8387 55.1566 77.7742 55.0921C77.7097 55.0277 77.6774 54.9632 77.6774 54.8666V51.6766L76.3226 53.7066C76.2903 53.7388 76.258 53.771 76.1935 53.8032C76.1613 53.8355 76.0968 53.8355 76.0322 53.8355C76 53.8355 75.9355 53.8355 75.9032 53.8032C75.8387 53.771 75.8064 53.7388 75.7742 53.7066L74.4193 51.6121V54.8666C74.4193 54.9632 74.3871 55.0277 74.3226 55.0921C74.258 55.1566 74.1935 55.1888 74.0968 55.1888C74 55.1888 73.9355 55.1566 73.8709 55.0921C73.8064 55.0277 73.7742 54.9632 73.7742 54.8666V50.6777C73.7742 50.581 73.8064 50.5166 73.8709 50.4521C73.9355 50.3877 74.0322 50.3555 74.129 50.3555C74.1935 50.3555 74.2258 50.3555 74.2903 50.3877C74.3548 50.4199 74.3871 50.4521 74.4193 50.5166L76.0645 52.9977L77.7419 50.5166C77.8387 50.3877 77.9355 50.3555 78.0645 50.3555Z" fill="white"/>
<path d="M87.7804 54.7696C87.7804 54.8018 87.8127 54.8663 87.8127 54.8985C87.8127 54.9952 87.7804 55.0596 87.7159 55.124C87.6514 55.1885 87.5869 55.2207 87.4901 55.2207C87.4256 55.2207 87.3611 55.1885 87.3288 55.1563C87.2643 55.124 87.232 55.0596 87.1998 54.9952L86.7804 53.9963H84.6191L84.1998 55.0274C84.1675 55.0918 84.1353 55.1563 84.0708 55.1885C84.0062 55.2207 83.974 55.2529 83.9095 55.2529C83.8127 55.2529 83.7482 55.2207 83.6837 55.1885C83.6191 55.124 83.6191 55.0596 83.6191 54.9952C83.6191 54.9629 83.6191 54.9307 83.6191 54.8663L85.3933 50.6129C85.4256 50.5485 85.4579 50.484 85.5224 50.4518C85.5869 50.4196 85.6514 50.3874 85.7159 50.4196C85.7804 50.4196 85.8449 50.4518 85.9095 50.484C85.974 50.5163 86.0062 50.5807 86.0385 50.6452L87.7804 54.7696ZM84.8772 53.3518H86.4901L85.6837 51.4185L84.8772 53.3518Z" fill="white"/>
<path d="M96.6912 54.641C96.7557 54.6732 96.7879 54.7055 96.8202 54.7699C96.8524 54.8021 96.8524 54.8666 96.8524 54.931C96.8524 55.0277 96.8202 55.0921 96.7557 55.1566C96.6912 55.1888 96.6266 55.221 96.5299 55.221C96.4331 55.221 96.3686 55.1888 96.3041 55.1566C96.175 55.0921 96.046 54.9632 95.9492 54.7699C95.8524 54.6088 95.8202 54.351 95.8202 53.9966C95.8202 53.771 95.7557 53.6099 95.6266 53.481C95.4976 53.3844 95.3041 53.3199 95.0783 53.3199H93.6589V54.8666C93.6589 54.9632 93.6266 55.0277 93.5944 55.0921C93.5299 55.1566 93.4653 55.1888 93.3686 55.1888C93.2718 55.1888 93.175 55.1566 93.0783 55.0921C93.0137 55.0277 92.9492 54.9632 92.9492 54.8666V50.6777C92.9492 50.581 92.9815 50.5166 93.046 50.4521C93.1105 50.3877 93.2073 50.3555 93.3041 50.3555H95.2395C95.4976 50.3555 95.7234 50.4199 95.917 50.5488C96.1428 50.6777 96.3041 50.8388 96.4008 51.0644C96.5299 51.2899 96.5944 51.5155 96.5944 51.7732C96.5944 52.031 96.5299 52.2888 96.4008 52.5144C96.2718 52.7399 96.0783 52.901 95.8847 52.9977C96.046 53.0944 96.175 53.2232 96.2718 53.3521C96.3686 53.5132 96.4331 53.7066 96.4331 53.8999C96.4653 54.1577 96.4653 54.351 96.4976 54.4477C96.5621 54.5121 96.6266 54.6088 96.6912 54.641ZM95.2718 52.7399C95.4008 52.7399 95.4976 52.6755 95.5944 52.611C95.6912 52.5144 95.7879 52.4177 95.8524 52.2888C95.917 52.1599 95.9492 51.9988 95.9492 51.8055C95.9492 51.5799 95.8847 51.3866 95.7557 51.2577C95.6266 51.0966 95.4653 51.0321 95.2718 51.0321H93.7234V52.7721H95.2718V52.7399Z" fill="white"/>
<path d="M105.896 54.641C105.96 54.7055 105.96 54.7699 105.96 54.8666C105.96 54.9632 105.928 55.0599 105.831 55.1244C105.767 55.1888 105.67 55.221 105.573 55.221C105.476 55.221 105.412 55.1888 105.315 55.0921L103.638 52.9332L102.863 53.6744V54.8988C102.863 54.9955 102.831 55.0599 102.767 55.1566C102.702 55.221 102.605 55.2532 102.509 55.2532C102.412 55.2532 102.315 55.221 102.251 55.1566C102.186 55.0921 102.154 54.9955 102.154 54.8988V50.7099C102.154 50.6132 102.186 50.5488 102.251 50.4844C102.315 50.4199 102.412 50.3877 102.509 50.3877C102.605 50.3877 102.702 50.4199 102.767 50.4844C102.831 50.5488 102.863 50.6132 102.863 50.7099V52.8688L105.315 50.4844C105.412 50.4199 105.476 50.3555 105.573 50.3555C105.67 50.3555 105.734 50.3877 105.799 50.4521C105.863 50.5166 105.896 50.581 105.896 50.6777C105.896 50.7421 105.863 50.8066 105.799 50.9032L104.154 52.4499L105.896 54.641Z" fill="white"/>
<path d="M114.077 54.5444C114.173 54.5444 114.27 54.5766 114.335 54.641C114.399 54.7055 114.432 54.7699 114.432 54.8666C114.432 54.9632 114.399 55.0277 114.335 55.0921C114.27 55.1566 114.206 55.1888 114.077 55.1888H111.657C111.561 55.1888 111.496 55.1566 111.399 55.0921C111.335 55.0277 111.302 54.9632 111.302 54.8666V50.6777C111.302 50.581 111.335 50.5166 111.399 50.4521C111.464 50.3877 111.561 50.3555 111.657 50.3555H114.077C114.173 50.3555 114.27 50.3877 114.335 50.4521C114.399 50.5166 114.432 50.581 114.432 50.6777C114.432 50.7744 114.399 50.8388 114.335 50.9032C114.27 50.9677 114.206 50.9999 114.077 50.9999H112.012V52.4177H113.754C113.851 52.4177 113.915 52.4499 113.98 52.5144C114.044 52.5788 114.077 52.6432 114.077 52.7399C114.077 52.8366 114.044 52.9332 113.98 52.9655C113.915 53.0299 113.851 53.0299 113.754 53.0299H112.012V54.5444H114.077Z" fill="white"/>
<path d="M122.936 50.3564C123.033 50.3564 123.13 50.3887 123.194 50.4531C123.259 50.5176 123.291 50.582 123.291 50.6787C123.291 50.7753 123.259 50.872 123.194 50.9042C123.13 50.9687 123.065 50.9687 122.936 50.9687H121.71V54.8353C121.71 54.932 121.678 54.9964 121.614 55.0609C121.549 55.1253 121.452 55.1576 121.356 55.1576C121.259 55.1576 121.162 55.1253 121.098 55.0609C121.033 54.9964 121.001 54.932 121.001 54.8353V50.9687H119.775C119.678 50.9687 119.614 50.9364 119.549 50.872C119.485 50.8076 119.452 50.7431 119.452 50.6464C119.452 50.5498 119.485 50.4853 119.549 50.4209C119.614 50.3564 119.678 50.3242 119.775 50.3242H122.936V50.3564Z" fill="white"/>
<path d="M129.233 54.8666C129.233 54.9632 129.201 55.0277 129.136 55.1244C129.072 55.1888 128.975 55.221 128.878 55.221C128.781 55.221 128.685 55.1888 128.62 55.1244C128.556 55.0599 128.523 54.9632 128.523 54.8666V50.6777C128.523 50.581 128.556 50.5166 128.62 50.4521C128.685 50.3877 128.781 50.3555 128.878 50.3555C128.975 50.3555 129.04 50.3877 129.104 50.4521C129.169 50.5166 129.201 50.581 129.201 50.6777V54.8666H129.233Z" fill="white"/>
<path d="M138.542 50.3555C138.638 50.3555 138.703 50.3877 138.767 50.4521C138.832 50.5166 138.832 50.581 138.832 50.6777V54.8666C138.832 54.9632 138.8 55.0277 138.735 55.1244C138.671 55.1888 138.606 55.221 138.509 55.221C138.445 55.221 138.413 55.221 138.348 55.1888C138.284 55.1566 138.251 55.1566 138.219 55.1244L135.509 51.5799V54.931C135.509 55.0277 135.477 55.0921 135.413 55.1566C135.348 55.221 135.284 55.2532 135.187 55.2532C135.09 55.2532 135.026 55.221 134.961 55.1566C134.896 55.0921 134.896 55.0277 134.896 54.931V50.7099C134.896 50.6132 134.929 50.5488 134.993 50.4844C135.058 50.4199 135.122 50.3877 135.219 50.3877C135.284 50.3877 135.316 50.3877 135.38 50.4199C135.445 50.4521 135.477 50.4521 135.509 50.5166L138.219 54.061V50.7099C138.219 50.6132 138.251 50.5488 138.316 50.4844C138.38 50.3877 138.445 50.3555 138.542 50.3555Z" fill="white"/>
<path d="M148.049 52.6452C148.145 52.6452 148.21 52.6774 148.274 52.7419C148.339 52.8063 148.371 52.8707 148.371 52.9674V54.5141C148.371 54.643 148.307 54.7396 148.21 54.8041C147.984 54.933 147.758 55.0619 147.5 55.1263C147.242 55.1907 146.984 55.2552 146.726 55.2552C146.274 55.2552 145.855 55.1585 145.468 54.933C145.081 54.7074 144.791 54.4174 144.565 54.0308C144.339 53.6441 144.242 53.2252 144.242 52.7741C144.242 52.323 144.339 51.9041 144.565 51.5174C144.791 51.1307 145.081 50.8407 145.468 50.6152C145.855 50.3896 146.274 50.293 146.726 50.293C146.952 50.293 147.178 50.3252 147.403 50.3574C147.629 50.4219 147.823 50.4863 147.984 50.583C148.049 50.6152 148.081 50.6474 148.113 50.7119C148.145 50.7441 148.145 50.8085 148.145 50.873C148.145 50.9696 148.113 51.0341 148.049 51.1307C147.984 51.1952 147.92 51.2274 147.823 51.2274C147.758 51.2274 147.694 51.1952 147.629 51.163C147.339 51.0341 147.016 50.9696 146.726 50.9696C146.403 50.9696 146.081 51.0341 145.823 51.2274C145.565 51.3885 145.339 51.6141 145.178 51.9041C145.016 52.1941 144.952 52.4841 144.952 52.8385C144.952 53.1607 145.016 53.483 145.178 53.773C145.339 54.063 145.565 54.2885 145.823 54.4496C146.113 54.6107 146.403 54.7074 146.726 54.7074C146.887 54.7074 147.049 54.6752 147.21 54.643C147.371 54.6107 147.533 54.5463 147.662 54.5141V53.4185H146.823C146.726 53.4185 146.662 53.3863 146.565 53.3219C146.5 53.2574 146.468 53.193 146.468 53.0963C146.468 52.9996 146.5 52.9352 146.565 52.8707C146.629 52.8063 146.726 52.7741 146.823 52.7741H148.049V52.6452Z" fill="white"/>
</svg>
