<svg width="221" height="138" viewBox="0 0 221 138" fill="none" xmlns="http://www.w3.org/2000/svg">
<path d="M115.753 51.6471C136.191 17.8207 154.125 0.911026 169.555 0.917971C192.701 0.917971 207.316 27.8138 215.847 64.3138C223.993 99.1888 221.638 146.751 192.701 146.751C179.805 146.751 162.055 127.73 144.68 102.376C133.599 86.3286 123.921 69.3561 115.753 51.6471ZM115.753 51.6471C93.2669 17.8207 73.5413 0.911026 56.576 0.917971C31.1072 0.917971 15.0343 27.8138 5.63847 64.3138C-3.30945 99.1992 -0.705282 146.751 31.1176 146.751C45.3051 146.751 64.8364 127.73 83.9301 102.376C96.6524 85.4527 107.26 68.543 115.753 51.6471Z" stroke="url(#paint0_linear_2142_1079)" stroke-width="1.5" stroke-linecap="round" stroke-linejoin="round"/>
<path d="M115.753 51.6471C136.191 17.8207 154.125 0.911026 169.555 0.917971C192.701 0.917971 207.316 27.8138 215.847 64.3138C223.993 99.1888 221.638 146.751 192.701 146.751C179.805 146.751 162.055 127.73 144.68 102.376C133.599 86.3286 123.921 69.3561 115.753 51.6471ZM115.753 51.6471C93.2669 17.8207 73.5413 0.911026 56.576 0.917971C31.1072 0.917971 15.0343 27.8138 5.63847 64.3138C-3.30945 99.1992 -0.705282 146.751 31.1176 146.751C45.3051 146.751 64.8364 127.73 83.9301 102.376C96.6524 85.4527 107.26 68.543 115.753 51.6471Z" stroke="url(#paint1_linear_2142_1079)" stroke-width="1.5" stroke-linecap="round" stroke-linejoin="round"/>
<path d="M115.753 51.6471C136.191 17.8207 154.125 0.911026 169.555 0.917971C192.701 0.917971 207.316 27.8138 215.847 64.3138C223.993 99.1888 221.638 146.751 192.701 146.751C179.805 146.751 162.055 127.73 144.68 102.376C133.599 86.3286 123.921 69.3561 115.753 51.6471ZM115.753 51.6471C93.2669 17.8207 73.5413 0.911026 56.576 0.917971C31.1072 0.917971 15.0343 27.8138 5.63847 64.3138C-3.30945 99.1992 -0.705282 146.751 31.1176 146.751C45.3051 146.751 64.8364 127.73 83.9301 102.376C96.6524 85.4527 107.26 68.543 115.753 51.6471Z" stroke="#B33C3C" stroke-width="1.5" stroke-linecap="round" stroke-linejoin="round"/>
<defs>
<linearGradient id="paint0_linear_2142_1079" x1="110.545" y1="0.917969" x2="110.545" y2="146.751" gradientUnits="userSpaceOnUse">
<stop stop-color="#464646"/>
<stop offset="1" stop-color="#060606"/>
</linearGradient>
<linearGradient id="paint1_linear_2142_1079" x1="110.373" y1="-39.1862" x2="111.691" y2="146.743" gradientUnits="userSpaceOnUse">
<stop stop-color="white"/>
<stop offset="0.857154" stop-color="#601312" stop-opacity="0.23"/>
</linearGradient>
</defs>
</svg>
