<svg width="221" height="148" viewBox="0 0 221 148" fill="none" xmlns="http://www.w3.org/2000/svg">
<path d="M105 51.8112C84.5629 17.9848 66.6288 1.07509 51.1982 1.08203C28.0524 1.08203 13.4378 27.9779 4.90659 64.4779C-3.23924 99.3529 -0.885075 146.915 28.0524 146.915C40.9483 146.915 58.6983 127.895 76.0733 102.54C87.1544 86.4926 96.8325 69.5202 105 51.8112ZM105 51.8112C127.486 17.9848 147.212 1.07509 164.177 1.08203C189.646 1.08203 205.719 27.9779 215.115 64.4779C224.063 99.3633 221.459 146.915 189.636 146.915C175.448 146.915 155.917 127.895 136.823 102.54C124.101 85.6167 113.493 68.707 105 51.8112Z" stroke="url(#paint0_linear_2248_1728)" stroke-width="1.5" stroke-linecap="round" stroke-linejoin="round"/>
<path d="M105 51.8112C84.5629 17.9848 66.6288 1.07509 51.1982 1.08203C28.0524 1.08203 13.4378 27.9779 4.90659 64.4779C-3.23924 99.3529 -0.885075 146.915 28.0524 146.915C40.9483 146.915 58.6983 127.895 76.0733 102.54C87.1544 86.4926 96.8325 69.5202 105 51.8112ZM105 51.8112C127.486 17.9848 147.212 1.07509 164.177 1.08203C189.646 1.08203 205.719 27.9779 215.115 64.4779C224.063 99.3633 221.459 146.915 189.636 146.915C175.448 146.915 155.917 127.895 136.823 102.54C124.101 85.6167 113.493 68.707 105 51.8112Z" stroke="url(#paint1_linear_2248_1728)" stroke-width="1.5" stroke-linecap="round" stroke-linejoin="round"/>
<path d="M105 51.8112C84.5629 17.9848 66.6288 1.07509 51.1982 1.08203C28.0524 1.08203 13.4378 27.9779 4.90659 64.4779C-3.23924 99.3529 -0.885075 146.915 28.0524 146.915C40.9483 146.915 58.6983 127.895 76.0733 102.54C87.1544 86.4926 96.8325 69.5202 105 51.8112ZM105 51.8112C127.486 17.9848 147.212 1.07509 164.177 1.08203C189.646 1.08203 205.719 27.9779 215.115 64.4779C224.063 99.3633 221.459 146.915 189.636 146.915C175.448 146.915 155.917 127.895 136.823 102.54C124.101 85.6167 113.493 68.707 105 51.8112Z" stroke="white" stroke-width="1.5" stroke-linecap="round" stroke-linejoin="round"/>
<defs>
<linearGradient id="paint0_linear_2248_1728" x1="110.208" y1="1.08203" x2="110.208" y2="146.915" gradientUnits="userSpaceOnUse">
<stop stop-color="#464646"/>
<stop offset="1" stop-color="#060606"/>
</linearGradient>
<linearGradient id="paint1_linear_2248_1728" x1="110.38" y1="-39.0221" x2="109.062" y2="146.907" gradientUnits="userSpaceOnUse">
<stop stop-color="white"/>
<stop offset="0.857154" stop-color="#601312" stop-opacity="0.23"/>
</linearGradient>
</defs>
</svg>
