<svg width="250" height="250" viewBox="0 0 250 250" fill="none" xmlns="http://www.w3.org/2000/svg">
<path d="M125 102.811C145.437 68.9848 163.371 52.0751 178.802 52.082C201.948 52.082 216.562 78.9779 225.093 115.478C233.239 150.353 230.885 197.915 201.948 197.915C189.052 197.915 171.302 178.895 153.927 153.54C142.846 137.493 133.167 120.52 125 102.811ZM125 102.811C102.514 68.9848 82.7878 52.0751 65.8226 52.082C40.3538 52.082 24.2809 78.9779 14.8851 115.478C5.93713 150.363 8.5413 197.915 40.3642 197.915C54.5517 197.915 74.083 178.895 93.1767 153.54C105.899 136.617 116.507 119.707 125 102.811Z" stroke="url(#paint0_linear_2054_1231)" stroke-width="1.5" stroke-linecap="round" stroke-linejoin="round"/>
<defs>
<linearGradient id="paint0_linear_2054_1231" x1="119.792" y1="52.082" x2="119.792" y2="197.915" gradientUnits="userSpaceOnUse">
<stop stop-color="#464646"/>
<stop offset="1" stop-color="#060606"/>
</linearGradient>
</defs>
</svg>
