<svg width="251" height="189" viewBox="0 0 251 189" fill="none" xmlns="http://www.w3.org/2000/svg">
<g id="hugeicons:meta">
<g id="Vector">
<path d="M125.753 102.815C146.19 68.9887 164.124 52.079 179.555 52.0859C202.701 52.0859 217.315 78.9818 225.846 115.482C233.992 150.357 231.638 197.919 202.7 197.919C189.805 197.919 172.055 178.898 154.68 153.544C143.599 137.497 133.92 120.524 125.753 102.815ZM125.753 102.815C103.266 68.9887 83.5408 52.079 66.5755 52.0859C41.1067 52.0859 25.0338 78.9818 15.638 115.482C6.69006 150.367 9.29423 197.919 41.1172 197.919C55.3047 197.919 74.8359 178.898 93.9297 153.544C106.652 136.621 117.26 119.711 125.753 102.815Z" stroke="url(#paint0_linear_2571_114)" stroke-width="1.5" stroke-linecap="round" stroke-linejoin="round"/>
<path d="M125.753 102.815C146.19 68.9887 164.124 52.079 179.555 52.0859C202.701 52.0859 217.315 78.9818 225.846 115.482C233.992 150.357 231.638 197.919 202.7 197.919C189.805 197.919 172.055 178.898 154.68 153.544C143.599 137.497 133.92 120.524 125.753 102.815ZM125.753 102.815C103.266 68.9887 83.5408 52.079 66.5755 52.0859C41.1067 52.0859 25.0338 78.9818 15.638 115.482C6.69006 150.367 9.29423 197.919 41.1172 197.919C55.3047 197.919 74.8359 178.898 93.9297 153.544C106.652 136.621 117.26 119.711 125.753 102.815Z" stroke="url(#paint1_linear_2571_114)" stroke-width="1.5" stroke-linecap="round" stroke-linejoin="round"/>
<path d="M125.753 102.815C146.19 68.9887 164.124 52.079 179.555 52.0859C202.701 52.0859 217.315 78.9818 225.846 115.482C233.992 150.357 231.638 197.919 202.7 197.919C189.805 197.919 172.055 178.898 154.68 153.544C143.599 137.497 133.92 120.524 125.753 102.815ZM125.753 102.815C103.266 68.9887 83.5408 52.079 66.5755 52.0859C41.1067 52.0859 25.0338 78.9818 15.638 115.482C6.69006 150.367 9.29423 197.919 41.1172 197.919C55.3047 197.919 74.8359 178.898 93.9297 153.544C106.652 136.621 117.26 119.711 125.753 102.815Z" stroke="#B33C3C" stroke-width="1.5" stroke-linecap="round" stroke-linejoin="round"/>
</g>
</g>
<defs>
<linearGradient id="paint0_linear_2571_114" x1="120.544" y1="52.0859" x2="120.544" y2="197.919" gradientUnits="userSpaceOnUse">
<stop stop-color="#464646"/>
<stop offset="1" stop-color="#060606"/>
</linearGradient>
<linearGradient id="paint1_linear_2571_114" x1="120.373" y1="11.9818" x2="121.691" y2="197.911" gradientUnits="userSpaceOnUse">
<stop stop-color="white"/>
<stop offset="0.857154" stop-color="#601312" stop-opacity="0.23"/>
</linearGradient>
</defs>
</svg>
