<svg width="250" height="250" viewBox="0 0 250 250" fill="none" xmlns="http://www.w3.org/2000/svg">
<path d="M187.501 187.503C210.513 187.503 229.167 150.193 229.167 104.169C229.167 58.1455 210.513 20.8359 187.501 20.8359C164.489 20.8359 145.834 58.1455 145.834 104.169C145.834 150.193 164.489 187.503 187.501 187.503Z" stroke="#464646" stroke-width="1.5" stroke-linecap="round" stroke-linejoin="round"/>
<path d="M187.501 187.503C210.513 187.503 229.167 150.193 229.167 104.169C229.167 58.1455 210.513 20.8359 187.501 20.8359C164.489 20.8359 145.834 58.1455 145.834 104.169C145.834 150.193 164.489 187.503 187.501 187.503Z" stroke="url(#paint0_linear_3132_4492)" stroke-width="1.5" stroke-linecap="round" stroke-linejoin="round"/>
<path d="M187.501 187.503C210.513 187.503 229.167 150.193 229.167 104.169C229.167 58.1455 210.513 20.8359 187.501 20.8359C164.489 20.8359 145.834 58.1455 145.834 104.169C145.834 150.193 164.489 187.503 187.501 187.503Z" stroke="#F61E1E" stroke-width="1.5" stroke-linecap="round" stroke-linejoin="round"/>
<path d="M187.501 20.8359C155.178 20.8359 88.1777 45.6068 49.6986 60.9818C32.0736 68.0234 20.834 85.1901 20.834 104.169C20.834 123.148 32.084 140.315 49.6986 147.357C88.1777 162.732 155.178 187.503 187.501 187.503M114.584 229.169L94.3444 218.023C83.539 212.043 74.7742 202.962 69.1815 191.951C63.5888 180.94 61.425 168.505 62.9694 156.253" stroke="#464646" stroke-width="1.5" stroke-linecap="round" stroke-linejoin="round"/>
<path d="M187.501 20.8359C155.178 20.8359 88.1777 45.6068 49.6986 60.9818C32.0736 68.0234 20.834 85.1901 20.834 104.169C20.834 123.148 32.084 140.315 49.6986 147.357C88.1777 162.732 155.178 187.503 187.501 187.503M114.584 229.169L94.3444 218.023C83.539 212.043 74.7742 202.962 69.1815 191.951C63.5888 180.94 61.425 168.505 62.9694 156.253" stroke="url(#paint1_linear_3132_4492)" stroke-width="1.5" stroke-linecap="round" stroke-linejoin="round"/>
<path d="M187.501 20.8359C155.178 20.8359 88.1777 45.6068 49.6986 60.9818C32.0736 68.0234 20.834 85.1901 20.834 104.169C20.834 123.148 32.084 140.315 49.6986 147.357C88.1777 162.732 155.178 187.503 187.501 187.503M114.584 229.169L94.3444 218.023C83.539 212.043 74.7742 202.962 69.1815 191.951C63.5888 180.94 61.425 168.505 62.9694 156.253" stroke="#F61E1E" stroke-width="1.5" stroke-linecap="round" stroke-linejoin="round"/>
<defs>
<linearGradient id="paint0_linear_3132_4492" x1="187.435" y1="-24.9974" x2="191.951" y2="187.408" gradientUnits="userSpaceOnUse">
<stop stop-color="white"/>
<stop offset="0.857154" stop-color="#601312" stop-opacity="0.23"/>
</linearGradient>
<linearGradient id="paint1_linear_3132_4492" x1="104.037" y1="-36.4557" x2="107.566" y2="229.124" gradientUnits="userSpaceOnUse">
<stop stop-color="white"/>
<stop offset="0.857154" stop-color="#601312" stop-opacity="0.23"/>
</linearGradient>
</defs>
</svg>
