<svg width="120" height="108" viewBox="0 0 120 108" fill="none" xmlns="http://www.w3.org/2000/svg">
<path opacity="0.6" d="M2.25393 2.18121C0.384325 3.90321 -0.255272 6.60921 0.0891283 9.06921C2.54913 28.5032 4.95993 47.9864 7.41993 67.4204C7.66593 69.6836 8.64993 72.0452 10.6179 73.3244C12.9795 74.948 16.1775 74.1116 18.1947 72.2912C35.0703 58.2692 51.9459 44.2472 68.8215 30.2252C70.6911 28.7 72.0687 26.24 71.4783 23.8292C70.8879 21.2708 68.5263 19.5488 66.1647 18.7616C47.5179 12.8084 28.8219 6.806 10.1751 0.852803C7.56753 -0.0327967 4.32033 0.164006 2.25393 2.18121Z" fill="#F84B4B"/>
<path opacity="0.8" d="M50.2539 35.6219C48.3843 37.3439 47.7447 40.0499 48.0891 42.5591C50.5491 62.0423 52.9599 81.4763 55.4199 100.959C55.6659 103.223 56.6499 105.584 58.6179 106.863C60.9795 108.487 64.2267 107.651 66.1947 105.83C83.0703 91.8083 99.9951 77.7371 116.871 63.7151C118.74 62.1899 120.118 59.7299 119.528 57.3191C118.937 54.7607 116.576 53.0387 114.214 52.2515C95.5179 46.2491 76.8711 40.2959 58.1751 34.3427C55.5183 33.4079 52.3203 33.6047 50.2539 35.6219Z" fill="#F61E1E"/>
</svg>
