<svg width="64" height="64" viewBox="0 0 64 64" fill="none" xmlns="http://www.w3.org/2000/svg">
<path d="M48.0007 11.9987C48.0007 13.7668 47.2983 15.4625 46.048 16.7127C44.7978 17.963 43.1021 18.6654 41.334 18.6654C39.5659 18.6654 37.8702 17.963 36.6199 16.7127C35.3697 15.4625 34.6673 13.7668 34.6673 11.9987C34.6673 10.2306 35.3697 8.5349 36.6199 7.28465C37.8702 6.03441 39.5659 5.33203 41.334 5.33203C43.1021 5.33203 44.7978 6.03441 46.048 7.28465C47.2983 8.5349 48.0007 10.2306 48.0007 11.9987ZM48.0007 51.9987C48.0007 53.7668 47.2983 55.4625 46.048 56.7127C44.7978 57.963 43.1021 58.6654 41.334 58.6654C39.5659 58.6654 37.8702 57.963 36.6199 56.7127C35.3697 55.4625 34.6673 53.7668 34.6673 51.9987C34.6673 50.2306 35.3697 48.5349 36.6199 47.2847C37.8702 46.0344 39.5659 45.332 41.334 45.332C43.1021 45.332 44.7978 46.0344 46.048 47.2847C47.2983 48.5349 48.0007 50.2306 48.0007 51.9987ZM26.6673 31.9987C26.6673 34.8277 25.5435 37.5408 23.5431 39.5412C21.5427 41.5416 18.8296 42.6654 16.0007 42.6654C13.1717 42.6654 10.4586 41.5416 8.45818 39.5412C6.45779 37.5408 5.33398 34.8277 5.33398 31.9987C5.33398 29.1697 6.45779 26.4566 8.45818 24.4562C10.4586 22.4558 13.1717 21.332 16.0007 21.332C18.8296 21.332 21.5427 22.4558 23.5431 24.4562C25.5435 26.4566 26.6673 29.1697 26.6673 31.9987Z" stroke="white" stroke-linecap="round" stroke-linejoin="round"/>
<path d="M58.6667 12H48M16 21.3333C16 17.5867 16 15.7147 16.8987 14.3707C17.2879 13.7881 17.7881 13.2879 18.3707 12.8987C19.7147 12 21.5893 12 25.3333 12H34.6667M58.6667 52H48M16 42.6667C16 46.4133 16 48.2853 16.8987 49.6293C17.2879 50.2119 17.7881 50.7121 18.3707 51.1013C19.7147 52 21.5893 52 25.3333 52H34.6667" stroke="white" stroke-linecap="round" stroke-linejoin="round"/>
</svg>
