<svg width="250" height="250" viewBox="0 0 250 250" fill="none" xmlns="http://www.w3.org/2000/svg">
<g id="arcticons:websitemonitor">
<g id="Vector">
<path d="M45.6975 135.409C45.2302 131.957 44.9797 128.48 44.9475 124.997C44.978 121.515 45.2267 118.037 45.6923 114.586L23.1142 96.9141C22.1151 96.1191 21.4358 94.991 21.2005 93.7361C20.9652 92.4812 21.1898 91.1836 21.8329 90.0807L43.1871 53.0859C43.8169 51.9865 44.821 51.1502 46.0162 50.7295C47.2113 50.3088 48.5179 50.3318 49.6975 50.7943L76.286 61.5234C81.8223 57.2549 87.8863 53.7188 94.3277 51.0026L98.3329 22.7109C98.5657 21.4608 99.2252 20.3303 100.199 19.5124C101.173 18.6946 102.4 18.2401 103.671 18.2266L146.38 18.2266C147.648 18.233 148.873 18.6861 149.839 19.5063C150.806 20.3264 151.453 21.4611 151.666 22.7109L155.666 51.0078C162.12 53.7006 168.188 57.2366 173.713 61.5234L200.296 50.7943C201.478 50.3424 202.782 50.3247 203.975 50.7444C205.168 51.1642 206.174 51.9939 206.812 53.0859L228.166 90.0859C228.799 91.1916 229.017 92.4863 228.782 93.7382C228.548 94.9902 227.875 96.1178 226.885 96.9193L204.354 114.591C204.821 118.041 205.071 121.516 205.104 124.997C205.072 128.48 204.821 131.957 204.354 135.409L226.885 153.081C227.884 153.876 228.563 155.004 228.799 156.259C229.034 157.514 228.809 158.811 228.166 159.914L206.812 196.909C206.182 198.008 205.178 198.845 203.983 199.265C202.788 199.686 201.481 199.663 200.302 199.201L173.713 188.471C168.177 192.74 162.113 196.276 155.671 198.992L151.666 227.284C151.453 228.534 150.806 229.668 149.839 230.489C148.873 231.309 147.648 231.762 146.38 231.768H103.671C102.404 231.762 101.179 231.309 100.212 230.489C99.245 229.668 98.5981 228.534 98.385 227.284L94.385 198.992C87.9311 196.298 81.8626 192.76 76.3381 188.471L49.7548 199.201C48.574 199.651 47.2716 199.668 46.0795 199.248C44.8873 198.829 43.8827 198 43.2444 196.909L21.8902 159.909C21.2577 158.803 21.0393 157.509 21.2741 156.257C21.5088 155.005 22.1814 153.877 23.1715 153.076L45.6975 135.409Z" stroke="url(#paint0_linear_2588_2100)" stroke-width="1.5" stroke-linecap="round" stroke-linejoin="round"/>
<path d="M45.6975 135.409C45.2302 131.957 44.9797 128.48 44.9475 124.997C44.978 121.515 45.2267 118.037 45.6923 114.586L23.1142 96.9141C22.1151 96.1191 21.4358 94.991 21.2005 93.7361C20.9652 92.4812 21.1898 91.1836 21.8329 90.0807L43.1871 53.0859C43.8169 51.9865 44.821 51.1502 46.0162 50.7295C47.2113 50.3088 48.5179 50.3318 49.6975 50.7943L76.286 61.5234C81.8223 57.2549 87.8863 53.7188 94.3277 51.0026L98.3329 22.7109C98.5657 21.4608 99.2252 20.3303 100.199 19.5124C101.173 18.6946 102.4 18.2401 103.671 18.2266L146.38 18.2266C147.648 18.233 148.873 18.6861 149.839 19.5063C150.806 20.3264 151.453 21.4611 151.666 22.7109L155.666 51.0078C162.12 53.7006 168.188 57.2366 173.713 61.5234L200.296 50.7943C201.478 50.3424 202.782 50.3247 203.975 50.7444C205.168 51.1642 206.174 51.9939 206.812 53.0859L228.166 90.0859C228.799 91.1916 229.017 92.4863 228.782 93.7382C228.548 94.9902 227.875 96.1178 226.885 96.9193L204.354 114.591C204.821 118.041 205.071 121.516 205.104 124.997C205.072 128.48 204.821 131.957 204.354 135.409L226.885 153.081C227.884 153.876 228.563 155.004 228.799 156.259C229.034 157.514 228.809 158.811 228.166 159.914L206.812 196.909C206.182 198.008 205.178 198.845 203.983 199.265C202.788 199.686 201.481 199.663 200.302 199.201L173.713 188.471C168.177 192.74 162.113 196.276 155.671 198.992L151.666 227.284C151.453 228.534 150.806 229.668 149.839 230.489C148.873 231.309 147.648 231.762 146.38 231.768H103.671C102.404 231.762 101.179 231.309 100.212 230.489C99.245 229.668 98.5981 228.534 98.385 227.284L94.385 198.992C87.9311 196.298 81.8626 192.76 76.3381 188.471L49.7548 199.201C48.574 199.651 47.2716 199.668 46.0795 199.248C44.8873 198.829 43.8827 198 43.2444 196.909L21.8902 159.909C21.2577 158.803 21.0393 157.509 21.2741 156.257C21.5088 155.005 22.1814 153.877 23.1715 153.076L45.6975 135.409Z" stroke="url(#paint1_linear_2588_2100)" stroke-width="1.5" stroke-linecap="round" stroke-linejoin="round"/>
<path d="M45.6975 135.409C45.2302 131.957 44.9797 128.48 44.9475 124.997C44.978 121.515 45.2267 118.037 45.6923 114.586L23.1142 96.9141C22.1151 96.1191 21.4358 94.991 21.2005 93.7361C20.9652 92.4812 21.1898 91.1836 21.8329 90.0807L43.1871 53.0859C43.8169 51.9865 44.821 51.1502 46.0162 50.7295C47.2113 50.3088 48.5179 50.3318 49.6975 50.7943L76.286 61.5234C81.8223 57.2549 87.8863 53.7188 94.3277 51.0026L98.3329 22.7109C98.5657 21.4608 99.2252 20.3303 100.199 19.5124C101.173 18.6946 102.4 18.2401 103.671 18.2266L146.38 18.2266C147.648 18.233 148.873 18.6861 149.839 19.5063C150.806 20.3264 151.453 21.4611 151.666 22.7109L155.666 51.0078C162.12 53.7006 168.188 57.2366 173.713 61.5234L200.296 50.7943C201.478 50.3424 202.782 50.3247 203.975 50.7444C205.168 51.1642 206.174 51.9939 206.812 53.0859L228.166 90.0859C228.799 91.1916 229.017 92.4863 228.782 93.7382C228.548 94.9902 227.875 96.1178 226.885 96.9193L204.354 114.591C204.821 118.041 205.071 121.516 205.104 124.997C205.072 128.48 204.821 131.957 204.354 135.409L226.885 153.081C227.884 153.876 228.563 155.004 228.799 156.259C229.034 157.514 228.809 158.811 228.166 159.914L206.812 196.909C206.182 198.008 205.178 198.845 203.983 199.265C202.788 199.686 201.481 199.663 200.302 199.201L173.713 188.471C168.177 192.74 162.113 196.276 155.671 198.992L151.666 227.284C151.453 228.534 150.806 229.668 149.839 230.489C148.873 231.309 147.648 231.762 146.38 231.768H103.671C102.404 231.762 101.179 231.309 100.212 230.489C99.245 229.668 98.5981 228.534 98.385 227.284L94.385 198.992C87.9311 196.298 81.8626 192.76 76.3381 188.471L49.7548 199.201C48.574 199.651 47.2716 199.668 46.0795 199.248C44.8873 198.829 43.8827 198 43.2444 196.909L21.8902 159.909C21.2577 158.803 21.0393 157.509 21.2741 156.257C21.5088 155.005 22.1814 153.877 23.1715 153.076L45.6975 135.409Z" stroke="white" stroke-width="1.5" stroke-linecap="round" stroke-linejoin="round"/>
</g>
<path id="Vector_2" d="M125 154.297C108.82 154.297 95.7031 141.18 95.7031 125C95.7031 108.82 108.82 95.7031 125 95.7031C141.18 95.7031 154.297 108.82 154.297 125C154.297 141.18 141.18 154.297 125 154.297Z" stroke="white" stroke-width="1.5" stroke-linecap="round" stroke-linejoin="round"/>
<path id="Vector_3" d="M125 95.7031C135.796 95.849 146.398 98.5863 155.915 103.685C165.432 108.783 173.585 116.093 179.688 125C173.585 133.907 165.432 141.217 155.915 146.315C146.398 151.414 135.796 154.151 125 154.297C114.204 154.151 103.602 151.414 94.0847 146.315C84.5677 141.217 76.4149 133.907 70.3125 125C76.4149 116.093 84.5677 108.783 94.0847 103.685C103.602 98.5863 114.204 95.849 125 95.7031Z" stroke="white" stroke-width="1.5" stroke-linecap="round" stroke-linejoin="round"/>
<path id="Vector_4" d="M125 121.844C123.257 121.844 121.844 123.257 121.844 125C121.844 126.743 123.257 128.156 125 128.156C126.743 128.156 128.156 126.743 128.156 125C128.156 123.257 126.743 121.844 125 121.844Z" stroke="white" stroke-width="1.5"/>
</g>
<defs>
<linearGradient id="paint0_linear_2588_2100" x1="125" y1="18.2266" x2="125" y2="231.768" gradientUnits="userSpaceOnUse">
<stop stop-color="#464646"/>
<stop offset="1" stop-color="#060606"/>
</linearGradient>
<linearGradient id="paint1_linear_2588_2100" x1="125.163" y1="-40.4974" x2="122.188" y2="231.738" gradientUnits="userSpaceOnUse">
<stop stop-color="white"/>
<stop offset="0.857154" stop-color="#601312" stop-opacity="0.23"/>
</linearGradient>
</defs>
</svg>
