<svg width="251" height="189" viewBox="0 0 251 189" fill="none" xmlns="http://www.w3.org/2000/svg">
<g id="arcticons:websitemonitor">
<g id="Vector">
<path d="M205.055 135.409C205.523 131.957 205.773 128.48 205.805 124.997C205.775 121.515 205.526 118.037 205.061 114.586L227.639 96.9141C228.638 96.1191 229.317 94.991 229.552 93.7361C229.788 92.4812 229.563 91.1836 228.92 90.0807L207.566 53.0859C206.936 51.9865 205.932 51.1502 204.737 50.7295C203.542 50.3088 202.235 50.3318 201.055 50.7943L174.467 61.5234C168.931 57.2549 162.867 53.7188 156.425 51.0026L152.42 22.7109C152.187 21.4608 151.528 20.3303 150.554 19.5124C149.58 18.6946 148.353 18.2401 147.081 18.2266L104.373 18.2266C103.105 18.233 101.88 18.6861 100.913 19.5063C99.9466 20.3264 99.2998 21.4611 99.0867 22.7109L95.0867 51.0078C88.633 53.7006 82.5646 57.2366 77.0398 61.5234L50.4565 50.7943C49.275 50.3424 47.9714 50.3247 46.7781 50.7444C45.5848 51.1642 44.5793 51.9939 43.9408 53.0859L22.5867 90.0859C21.9542 91.1916 21.7358 92.4863 21.9705 93.7382C22.2053 94.9902 22.8779 96.1178 23.8679 96.9193L46.3992 114.591C45.9321 118.041 45.6816 121.516 45.6492 124.997C45.6814 128.48 45.9319 131.957 46.3992 135.409L23.8679 153.081C22.8689 153.876 22.1896 155.004 21.9543 156.259C21.719 157.514 21.9435 158.811 22.5867 159.914L43.9408 196.909C44.5707 198.008 45.5747 198.845 46.7699 199.265C47.9651 199.686 49.2717 199.663 50.4513 199.201L77.0398 188.471C82.576 192.74 88.64 196.276 95.0815 198.992L99.0867 227.284C99.2998 228.534 99.9466 229.668 100.913 230.489C101.88 231.309 103.105 231.762 104.373 231.768H147.081C148.349 231.762 149.574 231.309 150.541 230.489C151.508 229.668 152.155 228.534 152.368 227.284L156.368 198.992C162.822 196.298 168.89 192.76 174.415 188.471L200.998 199.201C202.179 199.651 203.481 199.668 204.673 199.248C205.866 198.829 206.87 198 207.509 196.909L228.863 159.909C229.495 158.803 229.714 157.509 229.479 156.257C229.244 155.005 228.572 153.877 227.581 153.076L205.055 135.409Z" stroke="url(#paint0_linear_2571_805)" stroke-width="1.5" stroke-linecap="round" stroke-linejoin="round"/>
<path d="M205.055 135.409C205.523 131.957 205.773 128.48 205.805 124.997C205.775 121.515 205.526 118.037 205.061 114.586L227.639 96.9141C228.638 96.1191 229.317 94.991 229.552 93.7361C229.788 92.4812 229.563 91.1836 228.92 90.0807L207.566 53.0859C206.936 51.9865 205.932 51.1502 204.737 50.7295C203.542 50.3088 202.235 50.3318 201.055 50.7943L174.467 61.5234C168.931 57.2549 162.867 53.7188 156.425 51.0026L152.42 22.7109C152.187 21.4608 151.528 20.3303 150.554 19.5124C149.58 18.6946 148.353 18.2401 147.081 18.2266L104.373 18.2266C103.105 18.233 101.88 18.6861 100.913 19.5063C99.9466 20.3264 99.2998 21.4611 99.0867 22.7109L95.0867 51.0078C88.633 53.7006 82.5646 57.2366 77.0398 61.5234L50.4565 50.7943C49.275 50.3424 47.9714 50.3247 46.7781 50.7444C45.5848 51.1642 44.5793 51.9939 43.9408 53.0859L22.5867 90.0859C21.9542 91.1916 21.7358 92.4863 21.9705 93.7382C22.2053 94.9902 22.8779 96.1178 23.8679 96.9193L46.3992 114.591C45.9321 118.041 45.6816 121.516 45.6492 124.997C45.6814 128.48 45.9319 131.957 46.3992 135.409L23.8679 153.081C22.8689 153.876 22.1896 155.004 21.9543 156.259C21.719 157.514 21.9435 158.811 22.5867 159.914L43.9408 196.909C44.5707 198.008 45.5747 198.845 46.7699 199.265C47.9651 199.686 49.2717 199.663 50.4513 199.201L77.0398 188.471C82.576 192.74 88.64 196.276 95.0815 198.992L99.0867 227.284C99.2998 228.534 99.9466 229.668 100.913 230.489C101.88 231.309 103.105 231.762 104.373 231.768H147.081C148.349 231.762 149.574 231.309 150.541 230.489C151.508 229.668 152.155 228.534 152.368 227.284L156.368 198.992C162.822 196.298 168.89 192.76 174.415 188.471L200.998 199.201C202.179 199.651 203.481 199.668 204.673 199.248C205.866 198.829 206.87 198 207.509 196.909L228.863 159.909C229.495 158.803 229.714 157.509 229.479 156.257C229.244 155.005 228.572 153.877 227.581 153.076L205.055 135.409Z" stroke="url(#paint1_linear_2571_805)" stroke-width="1.5" stroke-linecap="round" stroke-linejoin="round"/>
<path d="M205.055 135.409C205.523 131.957 205.773 128.48 205.805 124.997C205.775 121.515 205.526 118.037 205.061 114.586L227.639 96.9141C228.638 96.1191 229.317 94.991 229.552 93.7361C229.788 92.4812 229.563 91.1836 228.92 90.0807L207.566 53.0859C206.936 51.9865 205.932 51.1502 204.737 50.7295C203.542 50.3088 202.235 50.3318 201.055 50.7943L174.467 61.5234C168.931 57.2549 162.867 53.7188 156.425 51.0026L152.42 22.7109C152.187 21.4608 151.528 20.3303 150.554 19.5124C149.58 18.6946 148.353 18.2401 147.081 18.2266L104.373 18.2266C103.105 18.233 101.88 18.6861 100.913 19.5063C99.9466 20.3264 99.2998 21.4611 99.0867 22.7109L95.0867 51.0078C88.633 53.7006 82.5646 57.2366 77.0398 61.5234L50.4565 50.7943C49.275 50.3424 47.9714 50.3247 46.7781 50.7444C45.5848 51.1642 44.5793 51.9939 43.9408 53.0859L22.5867 90.0859C21.9542 91.1916 21.7358 92.4863 21.9705 93.7382C22.2053 94.9902 22.8779 96.1178 23.8679 96.9193L46.3992 114.591C45.9321 118.041 45.6816 121.516 45.6492 124.997C45.6814 128.48 45.9319 131.957 46.3992 135.409L23.8679 153.081C22.8689 153.876 22.1896 155.004 21.9543 156.259C21.719 157.514 21.9435 158.811 22.5867 159.914L43.9408 196.909C44.5707 198.008 45.5747 198.845 46.7699 199.265C47.9651 199.686 49.2717 199.663 50.4513 199.201L77.0398 188.471C82.576 192.74 88.64 196.276 95.0815 198.992L99.0867 227.284C99.2998 228.534 99.9466 229.668 100.913 230.489C101.88 231.309 103.105 231.762 104.373 231.768H147.081C148.349 231.762 149.574 231.309 150.541 230.489C151.508 229.668 152.155 228.534 152.368 227.284L156.368 198.992C162.822 196.298 168.89 192.76 174.415 188.471L200.998 199.201C202.179 199.651 203.481 199.668 204.673 199.248C205.866 198.829 206.87 198 207.509 196.909L228.863 159.909C229.495 158.803 229.714 157.509 229.479 156.257C229.244 155.005 228.572 153.877 227.581 153.076L205.055 135.409Z" stroke="#B33C3C" stroke-width="1.5" stroke-linecap="round" stroke-linejoin="round"/>
</g>
<g id="Vector_2">
<path d="M125.753 154.297C141.933 154.297 155.05 141.18 155.05 125C155.05 108.82 141.933 95.7031 125.753 95.7031C109.573 95.7031 96.4561 108.82 96.4561 125C96.4561 141.18 109.573 154.297 125.753 154.297Z" stroke="url(#paint2_linear_2571_805)" stroke-width="1.5" stroke-linecap="round" stroke-linejoin="round"/>
<path d="M125.753 154.297C141.933 154.297 155.05 141.18 155.05 125C155.05 108.82 141.933 95.7031 125.753 95.7031C109.573 95.7031 96.4561 108.82 96.4561 125C96.4561 141.18 109.573 154.297 125.753 154.297Z" stroke="url(#paint3_linear_2571_805)" stroke-width="1.5" stroke-linecap="round" stroke-linejoin="round"/>
<path d="M125.753 154.297C141.933 154.297 155.05 141.18 155.05 125C155.05 108.82 141.933 95.7031 125.753 95.7031C109.573 95.7031 96.4561 108.82 96.4561 125C96.4561 141.18 109.573 154.297 125.753 154.297Z" stroke="#B33C3C" stroke-width="1.5" stroke-linecap="round" stroke-linejoin="round"/>
</g>
<path id="Vector_3" d="M125.753 95.7031C114.957 95.849 104.355 98.5863 94.8377 103.685C85.3206 108.783 77.1678 116.093 71.0654 125C77.1678 133.907 85.3206 141.217 94.8377 146.315C104.355 151.414 114.957 154.151 125.753 154.297C136.549 154.151 147.151 151.414 156.668 146.315C166.185 141.217 174.338 133.907 180.44 125C174.338 116.093 166.185 108.783 156.668 103.685C147.151 98.5863 136.549 95.849 125.753 95.7031Z" stroke="#B33C3C" stroke-width="1.5" stroke-linecap="round" stroke-linejoin="round"/>
<path id="Vector_4" d="M125.753 121.844C127.496 121.844 128.909 123.257 128.909 125C128.909 126.743 127.496 128.156 125.753 128.156C124.01 128.156 122.597 126.743 122.597 125C122.597 123.257 124.01 121.844 125.753 121.844Z" stroke="#B33C3C" stroke-width="1.5"/>
</g>
<defs>
<linearGradient id="paint0_linear_2571_805" x1="125.753" y1="18.2266" x2="125.753" y2="231.768" gradientUnits="userSpaceOnUse">
<stop stop-color="#464646"/>
<stop offset="1" stop-color="#060606"/>
</linearGradient>
<linearGradient id="paint1_linear_2571_805" x1="125.59" y1="-40.4974" x2="128.565" y2="231.738" gradientUnits="userSpaceOnUse">
<stop stop-color="white"/>
<stop offset="0.857154" stop-color="#601312" stop-opacity="0.23"/>
</linearGradient>
<linearGradient id="paint2_linear_2571_805" x1="125.753" y1="95.7031" x2="125.753" y2="154.297" gradientUnits="userSpaceOnUse">
<stop stop-color="#464646"/>
<stop offset="1" stop-color="#060606"/>
</linearGradient>
<linearGradient id="paint3_linear_2571_805" x1="125.707" y1="79.5898" x2="126.501" y2="154.289" gradientUnits="userSpaceOnUse">
<stop stop-color="white"/>
<stop offset="0.857154" stop-color="#601312" stop-opacity="0.23"/>
</linearGradient>
</defs>
</svg>
