<svg width="64" height="64" viewBox="0 0 64 64" fill="none" xmlns="http://www.w3.org/2000/svg">
<path d="M31.9999 25.3358C34.4226 25.3358 36.3866 23.3719 36.3866 20.9492C36.3866 18.5265 34.4226 16.5625 31.9999 16.5625C29.5773 16.5625 27.6133 18.5265 27.6133 20.9492C27.6133 23.3719 29.5773 25.3358 31.9999 25.3358Z" stroke="white" stroke-width="0.5" stroke-linecap="round" stroke-linejoin="round"/>
<path d="M35.8041 49.0013L36.3868 46.7413L41.9854 50.728L46.5054 36.372L43.5134 33.58C44.6428 20.22 42.0508 11.7133 32.0001 4.66797C21.9494 11.7133 19.3574 20.2213 20.4868 33.58L17.4961 36.372L22.0161 50.728L27.6134 46.7413L28.1974 49L35.8041 49.0013ZM35.2508 51.8933L32.0001 59.3346L28.7494 51.8933H35.2508Z" stroke="white" stroke-width="0.5" stroke-linecap="round" stroke-linejoin="round"/>
<path d="M40.9585 24.0078C41.3571 31.9505 40.0278 37.3678 37.3691 42.2865" stroke="black" stroke-width="0.5" stroke-linecap="round" stroke-linejoin="round"/>
</svg>
