<svg width="250" height="250" viewBox="0 0 250 250" fill="none" xmlns="http://www.w3.org/2000/svg">
<path d="M208.334 105.503C208.334 65.5859 208.334 45.638 196.126 33.2318C183.917 20.8255 164.282 20.8359 125.001 20.8359H104.167C64.8861 20.8359 45.2402 20.8359 33.0423 33.2318C20.8444 45.6276 20.834 65.5859 20.834 105.503C20.834 145.419 20.834 165.367 33.0423 177.773C37.9382 182.742 44.0215 185.721 52.084 187.503" stroke="#464646" stroke-width="1.5" stroke-linecap="round" stroke-linejoin="round"/>
<path d="M208.334 105.503C208.334 65.5859 208.334 45.638 196.126 33.2318C183.917 20.8255 164.282 20.8359 125.001 20.8359H104.167C64.8861 20.8359 45.2402 20.8359 33.0423 33.2318C20.8444 45.6276 20.834 65.5859 20.834 105.503C20.834 145.419 20.834 165.367 33.0423 177.773C37.9382 182.742 44.0215 185.721 52.084 187.503" stroke="url(#paint0_linear_3132_4481)" stroke-width="1.5" stroke-linecap="round" stroke-linejoin="round"/>
<path d="M208.334 105.503C208.334 65.5859 208.334 45.638 196.126 33.2318C183.917 20.8255 164.282 20.8359 125.001 20.8359H104.167C64.8861 20.8359 45.2402 20.8359 33.0423 33.2318C20.8444 45.6276 20.834 65.5859 20.834 105.503C20.834 145.419 20.834 165.367 33.0423 177.773C37.9382 182.742 44.0215 185.721 52.084 187.503" stroke="#F61E1E" stroke-width="1.5" stroke-linecap="round" stroke-linejoin="round"/>
<path d="M229.167 182.297C229.167 162.766 229.167 153.005 224.199 146.151C222.593 143.941 220.649 141.997 218.438 140.391C211.584 135.422 201.824 135.422 182.292 135.422H130.209C110.678 135.422 100.917 135.422 94.0631 140.391C91.8527 141.997 89.9088 143.941 88.3027 146.151C83.334 153.016 83.334 162.776 83.334 182.297C83.334 201.818 83.334 211.589 88.3027 218.443C89.9119 220.654 91.8594 222.598 94.0736 224.203C100.917 229.172 110.678 229.172 130.209 229.172H182.292C201.824 229.172 211.584 229.172 218.438 224.203C220.649 222.597 222.593 220.653 224.199 218.443C229.167 211.589 229.167 201.828 229.167 182.297Z" stroke="#F61E1E" stroke-width="1.5" stroke-linecap="round" stroke-linejoin="round"/>
<path d="M171.876 166.667L181.46 174.927C185.491 178.396 187.501 180.135 187.501 182.292C187.501 184.448 185.491 186.188 181.46 189.656L171.876 197.917M140.626 166.667L131.043 174.927C127.012 178.396 125.001 180.135 125.001 182.292C125.001 184.448 127.012 186.188 131.043 189.656L140.626 197.917M26.043 62.5L203.126 62.5" stroke="#F61E1E" stroke-width="1.5" stroke-linecap="round" stroke-linejoin="round"/>
<defs>
<linearGradient id="paint0_linear_3132_4481" x1="114.437" y1="-24.9974" x2="116.445" y2="187.485" gradientUnits="userSpaceOnUse">
<stop stop-color="white"/>
<stop offset="0.857154" stop-color="#601312" stop-opacity="0.23"/>
</linearGradient>
</defs>
</svg>
