<svg width="250" height="250" viewBox="0 0 250 250" fill="none" xmlns="http://www.w3.org/2000/svg">
<path d="M125 102.815C104.563 68.9887 86.6288 52.079 71.1982 52.0859C48.0524 52.0859 33.4378 78.9818 24.9066 115.482C16.7608 150.357 19.1149 197.919 48.0524 197.919C60.9483 197.919 78.6983 178.898 96.0733 153.544C107.154 137.497 116.833 120.524 125 102.815ZM125 102.815C147.486 68.9887 167.212 52.079 184.177 52.0859C209.646 52.0859 225.719 78.9818 235.115 115.482C244.063 150.367 241.459 197.919 209.636 197.919C195.448 197.919 175.917 178.898 156.823 153.544C144.101 136.621 133.493 119.711 125 102.815Z" stroke="#464646" stroke-width="1.5" stroke-linecap="round" stroke-linejoin="round"/>
<path d="M125 102.815C104.563 68.9887 86.6288 52.079 71.1982 52.0859C48.0524 52.0859 33.4378 78.9818 24.9066 115.482C16.7608 150.357 19.1149 197.919 48.0524 197.919C60.9483 197.919 78.6983 178.898 96.0733 153.544C107.154 137.497 116.833 120.524 125 102.815ZM125 102.815C147.486 68.9887 167.212 52.079 184.177 52.0859C209.646 52.0859 225.719 78.9818 235.115 115.482C244.063 150.367 241.459 197.919 209.636 197.919C195.448 197.919 175.917 178.898 156.823 153.544C144.101 136.621 133.493 119.711 125 102.815Z" stroke="url(#paint0_linear_3132_4486)" stroke-width="1.5" stroke-linecap="round" stroke-linejoin="round"/>
<path d="M125 102.815C104.563 68.9887 86.6288 52.079 71.1982 52.0859C48.0524 52.0859 33.4378 78.9818 24.9066 115.482C16.7608 150.357 19.1149 197.919 48.0524 197.919C60.9483 197.919 78.6983 178.898 96.0733 153.544C107.154 137.497 116.833 120.524 125 102.815ZM125 102.815C147.486 68.9887 167.212 52.079 184.177 52.0859C209.646 52.0859 225.719 78.9818 235.115 115.482C244.063 150.367 241.459 197.919 209.636 197.919C195.448 197.919 175.917 178.898 156.823 153.544C144.101 136.621 133.493 119.711 125 102.815Z" stroke="#F61E1E" stroke-width="1.5" stroke-linecap="round" stroke-linejoin="round"/>
<defs>
<linearGradient id="paint0_linear_3132_4486" x1="130.38" y1="11.9818" x2="129.062" y2="197.911" gradientUnits="userSpaceOnUse">
<stop stop-color="white"/>
<stop offset="0.857154" stop-color="#601312" stop-opacity="0.23"/>
</linearGradient>
</defs>
</svg>
